<svg width="19" height="19" viewBox="0 0 19 19" fill="none" xmlns="http://www.w3.org/2000/svg">
<mask id="mask0_234_8659" style="mask-type:alpha" maskUnits="userSpaceOnUse" x="0" y="0" width="19" height="19">
<rect x="0.300049" y="0.200195" width="18" height="18" fill="#D9D9D9"/>
</mask>
<g mask="url(#mask0_234_8659)">
<path d="M9.3 16.6994C8.3625 16.6994 7.48438 16.5213 6.66563 16.165C5.84688 15.8088 5.13438 15.3275 4.52813 14.7213C3.92188 14.115 3.44063 13.4025 3.08438 12.5838C2.72813 11.765 2.55 10.8869 2.55 9.94941C2.55 9.01191 2.72813 8.13379 3.08438 7.31504C3.44063 6.49629 3.92188 5.78379 4.52813 5.17754C5.13438 4.57129 5.84688 4.09004 6.66563 3.73379C7.48438 3.37754 8.3625 3.19941 9.3 3.19941C10.2375 3.19941 11.1156 3.37754 11.9344 3.73379C12.7531 4.09004 13.4656 4.57129 14.0719 5.17754C14.6781 5.78379 15.1594 6.49629 15.5156 7.31504C15.8719 8.13379 16.05 9.01191 16.05 9.94941C16.05 10.8869 15.8719 11.765 15.5156 12.5838C15.1594 13.4025 14.6781 14.115 14.0719 14.7213C13.4656 15.3275 12.7531 15.8088 11.9344 16.165C11.1156 16.5213 10.2375 16.6994 9.3 16.6994ZM11.4 13.0994L12.45 12.0494L10.05 9.64941V6.19941H8.55V10.2494L11.4 13.0994ZM4.5 1.96191L5.55 3.01191L2.3625 6.19941L1.3125 5.14941L4.5 1.96191ZM14.1 1.96191L17.2875 5.14941L16.2375 6.19941L13.05 3.01191L14.1 1.96191ZM9.3 15.1994C10.7625 15.1994 12.0031 14.69 13.0219 13.6713C14.0406 12.6525 14.55 11.4119 14.55 9.94941C14.55 8.48691 14.0406 7.24629 13.0219 6.22754C12.0031 5.20879 10.7625 4.69941 9.3 4.69941C7.8375 4.69941 6.59688 5.20879 5.57813 6.22754C4.55938 7.24629 4.05 8.48691 4.05 9.94941C4.05 11.4119 4.55938 12.6525 5.57813 13.6713C6.59688 14.69 7.8375 15.1994 9.3 15.1994Z" fill="#E389B5"/>
</g>
</svg>
