<svg width="19" height="19" viewBox="0 0 19 19" fill="none" xmlns="http://www.w3.org/2000/svg">
<mask id="mask0_2486_10411" style="mask-type:alpha" maskUnits="userSpaceOnUse" x="0" y="0" width="19" height="19">
<rect x="0.100098" y="0.200195" width="18" height="18" fill="#D9D9D9"/>
</mask>
<g mask="url(#mask0_2486_10411)">
<path d="M9.10005 16.6994C8.16255 16.6994 7.28442 16.5213 6.46567 16.165C5.64692 15.8088 4.93442 15.3275 4.32817 14.7213C3.72192 14.115 3.24067 13.4025 2.88442 12.5838C2.52817 11.765 2.35005 10.8869 2.35005 9.94941C2.35005 9.01191 2.52817 8.13379 2.88442 7.31504C3.24067 6.49629 3.72192 5.78379 4.32817 5.17754C4.93442 4.57129 5.64692 4.09004 6.46567 3.73379C7.28442 3.37754 8.16255 3.19941 9.10005 3.19941C10.0375 3.19941 10.9157 3.37754 11.7344 3.73379C12.5532 4.09004 13.2657 4.57129 13.8719 5.17754C14.4782 5.78379 14.9594 6.49629 15.3157 7.31504C15.6719 8.13379 15.85 9.01191 15.85 9.94941C15.85 10.8869 15.6719 11.765 15.3157 12.5838C14.9594 13.4025 14.4782 14.115 13.8719 14.7213C13.2657 15.3275 12.5532 15.8088 11.7344 16.165C10.9157 16.5213 10.0375 16.6994 9.10005 16.6994ZM11.2 13.0994L12.25 12.0494L9.85005 9.64941V6.19941H8.35005V10.2494L11.2 13.0994ZM4.30005 1.96191L5.35005 3.01191L2.16255 6.19941L1.11255 5.14941L4.30005 1.96191ZM13.9 1.96191L17.0875 5.14941L16.0375 6.19941L12.85 3.01191L13.9 1.96191ZM9.10005 15.1994C10.5625 15.1994 11.8032 14.69 12.8219 13.6713C13.8407 12.6525 14.35 11.4119 14.35 9.94941C14.35 8.48691 13.8407 7.24629 12.8219 6.22754C11.8032 5.20879 10.5625 4.69941 9.10005 4.69941C7.63755 4.69941 6.39692 5.20879 5.37817 6.22754C4.35942 7.24629 3.85005 8.48691 3.85005 9.94941C3.85005 11.4119 4.35942 12.6525 5.37817 13.6713C6.39692 14.69 7.63755 15.1994 9.10005 15.1994Z" fill="#8E91BE"/>
</g>
</svg>
