<svg width="56" height="56" viewBox="0 0 56 56" fill="none" xmlns="http://www.w3.org/2000/svg">
<g filter="url(#filter0_d_234_15331)">
<rect x="10" y="8" width="36" height="36" rx="10" fill="white" shape-rendering="crispEdges"/>
<path d="M20.25 20.3916C20.25 19.7012 20.8096 19.1416 21.5 19.1416H34.5C35.1903 19.1416 35.75 19.7012 35.75 20.3916V32.4996C35.75 33.19 35.1903 33.7496 34.5 33.7496H21.5C20.8096 33.7496 20.25 33.19 20.25 32.4996V20.3916Z" stroke="#26C1D6" stroke-width="1.5"/>
<path d="M34.6111 21.7502H21.3889V19.8613H34.6111V21.7502Z" fill="#26C1D6" stroke="#26C1D6" stroke-width="1.5"/>
<path d="M24.0278 17.5C24.0278 17.0858 23.692 16.75 23.2778 16.75C22.8636 16.75 22.5278 17.0858 22.5278 17.5H24.0278ZM24.0278 19.7299V17.5H22.5278V19.7299H24.0278Z" fill="#26C1D6"/>
<path d="M33.4722 17.5C33.4722 17.0858 33.1364 16.75 32.7222 16.75C32.308 16.75 31.9722 17.0858 31.9722 17.5H33.4722ZM33.4722 19.7299V17.5H31.9722V19.7299H33.4722Z" fill="#26C1D6"/>
</g>
<defs>
<filter id="filter0_d_234_15331" x="0" y="0" width="56" height="56" filterUnits="userSpaceOnUse" color-interpolation-filters="sRGB">
<feFlood flood-opacity="0" result="BackgroundImageFix"/>
<feColorMatrix in="SourceAlpha" type="matrix" values="0 0 0 0 0 0 0 0 0 0 0 0 0 0 0 0 0 0 127 0" result="hardAlpha"/>
<feOffset dy="2"/>
<feGaussianBlur stdDeviation="5"/>
<feComposite in2="hardAlpha" operator="out"/>
<feColorMatrix type="matrix" values="0 0 0 0 0 0 0 0 0 0 0 0 0 0 0 0 0 0 0.15 0"/>
<feBlend mode="normal" in2="BackgroundImageFix" result="effect1_dropShadow_234_15331"/>
<feBlend mode="normal" in="SourceGraphic" in2="effect1_dropShadow_234_15331" result="shape"/>
</filter>
</defs>
</svg>
