<svg width="20" height="20" viewBox="0 0 20 20" fill="none" xmlns="http://www.w3.org/2000/svg">
<path d="M3.54248 5.32389C3.54248 4.7486 4.00885 4.28223 4.58415 4.28223H15.4175C15.9928 4.28223 16.4591 4.7486 16.4591 5.32389V15.4139C16.4591 15.9892 15.9928 16.4556 15.4175 16.4556H4.58415C4.00885 16.4556 3.54248 15.9892 3.54248 15.4139V5.32389Z" stroke="#BDBDBD" stroke-width="1.25"/>
<path d="M15.5102 6.45689H4.4917V4.88281H15.5102V6.45689Z" fill="#BDBDBD" stroke="#BDBDBD" stroke-width="1.25"/>
<path d="M6.69116 2.91406C6.69116 2.56888 6.41134 2.28906 6.06616 2.28906C5.72098 2.28906 5.44116 2.56888 5.44116 2.91406H6.69116ZM6.69116 4.77234V2.91406H5.44116V4.77234H6.69116Z" fill="#BDBDBD"/>
<path d="M14.5613 2.91406C14.5613 2.56888 14.2815 2.28906 13.9363 2.28906C13.5911 2.28906 13.3113 2.56888 13.3113 2.91406H14.5613ZM14.5613 4.77234V2.91406H13.3113V4.77234H14.5613Z" fill="#BDBDBD"/>
</svg>
