<svg width="14" height="14" viewBox="0 0 14 14" fill="none" xmlns="http://www.w3.org/2000/svg">
<mask id="mask0_2382_13035" style="mask-type:alpha" maskUnits="userSpaceOnUse" x="0" y="0" width="14" height="14">
<rect width="14" height="14" fill="#D9D9D9"/>
</mask>
<g mask="url(#mask0_2382_13035)">
<path d="M11.6684 4.79653C11.4415 5.02338 11.0741 5.02447 10.8459 4.79896L9.19654 3.16904C8.96643 2.94164 8.96533 2.57041 9.19409 2.34165L9.59583 1.93991C9.81944 1.7163 10.0941 1.60449 10.4198 1.60449C10.7455 1.60449 11.0201 1.7163 11.2438 1.93991L12.0604 2.75658C12.284 2.98019 12.4007 3.24998 12.4104 3.56595C12.4201 3.88192 12.3132 4.15171 12.0896 4.37533L11.6684 4.79653ZM10 5.65451C10.2278 5.88232 10.2278 6.25167 10 6.47947L4.40002 12.0795C4.29062 12.1889 4.14225 12.2503 3.98754 12.2503H2.33333C2.01117 12.2503 1.75 11.9892 1.75 11.667V10.0128C1.75 9.85807 1.81146 9.7097 1.92085 9.60031L7.52086 4.0003C7.74866 3.7725 8.11801 3.7725 8.34581 4.0003L10 5.65451Z" fill="#26C1D6"/>
</g>
</svg>
