<svg width="14" height="14" viewBox="0 0 14 14" fill="none" xmlns="http://www.w3.org/2000/svg">
<path d="M12.8043 7.07295C12.7896 7.13155 12.7752 7.18636 12.761 7.23749L11.0291 11.3073C10.9941 11.3829 10.9304 11.4641 10.808 11.5457C10.6924 11.6227 10.5929 11.649 10.4993 11.649H4.6835V4.91528L7.86146 1.73731C8.02926 1.56951 8.301 1.56898 8.46946 1.73572C8.47169 1.73867 8.48459 1.75645 8.50121 1.80077C8.52379 1.86098 8.52863 1.90129 8.52863 1.92546V2.05491L7.90536 4.51965L7.71644 5.26675H8.48705H12.249C12.3906 5.26675 12.513 5.31261 12.6413 5.44096C12.7697 5.56932 12.8155 5.69172 12.8155 5.83325V6.99976C12.8155 7.01097 12.8139 7.03459 12.8043 7.07295Z" stroke="#26C1D6" stroke-width="1.2"/>
<path d="M1.89053 11.6482V5.26309H2.7517V11.6482H1.89053Z" stroke="#26C1D6" stroke-width="1.2"/>
</svg>
