<svg width="32" height="32" viewBox="0 0 32 32" fill="none" xmlns="http://www.w3.org/2000/svg">
<path d="M15.9998 2.66406C23.3636 2.66406 29.3332 8.6336 29.3332 15.9974C29.3332 23.3611 23.3636 29.3307 15.9998 29.3307H5.33317C3.86041 29.3307 2.6665 28.1369 2.6665 26.6641V15.9974C2.6665 8.6336 8.63604 2.66406 15.9998 2.66406ZM15.9998 18.6641H11.9998C11.2635 18.6641 10.6665 19.261 10.6665 19.9974C10.6665 20.7338 11.2635 21.3307 11.9998 21.3307H15.9998C16.7362 21.3307 17.3332 20.7338 17.3332 19.9974C17.3332 19.261 16.7362 18.6641 15.9998 18.6641ZM19.9998 13.3307H11.9998C11.2635 13.3307 10.6665 13.9277 10.6665 14.6641C10.6665 15.3479 11.1812 15.9114 11.8443 15.9884L11.9998 15.9974H19.9998C20.7362 15.9974 21.3332 15.4005 21.3332 14.6641C21.3332 13.9803 20.8185 13.4167 20.1553 13.3397L19.9998 13.3307Z" fill="#191919"/>
</svg>
