<svg width="112" height="112" viewBox="0 0 112 112" fill="none" xmlns="http://www.w3.org/2000/svg">
<circle cx="56" cy="56" r="55" fill="white" stroke="#E0E0E0"/>
<path d="M15.1251 60.2718L10.199 51.987L10.143 51.875H8.85547V64.918H10.5348L10.4788 55.6256L14.6213 62.399H15.6849L19.7713 55.6815V64.918H21.4507V51.875H20.1632L15.1251 60.2718Z" fill="black"/>
<path d="M29.5672 58.5925L25.2568 51.875H23.3535L28.7275 60.2718V64.918H30.4628V60.2718L35.8368 51.875H33.9335L29.5672 58.5925Z" fill="black"/>
<path d="M53.3584 51.875L48.4883 62.5669L43.6181 51.875H41.7148L47.7046 64.918L47.7606 65.03H49.216L55.2617 51.875H53.3584Z" fill="black"/>
<path d="M71.5505 51.875H69.8711V64.918H78.6038V63.3506H71.5505V51.875Z" fill="black"/>
<path d="M89.7443 59.3202C89.7443 61.8392 88.1209 63.5746 85.8818 63.5746C83.5866 63.5746 82.0192 61.8392 82.0192 59.3202V51.875H80.3398V59.3202C80.3398 62.7909 82.635 65.1979 85.9377 65.1979C89.2405 65.1979 91.5356 62.7909 91.5356 59.3202V51.875H89.8562V59.3202H89.7443Z" fill="black"/>
<path d="M94.3359 53.4424V51.875H103.516V64.918H94.3359V63.2947H101.781V59.2082H95.0637V57.6408H101.781V53.4424H94.3359Z" fill="black"/>
<path d="M61.9237 51.8776L61.8677 51.7656H60.3563L54.4785 64.9206H56.2698L61.14 54.0048L63.603 59.6586L64.3308 61.226L65.9542 64.9206H67.8015L61.9237 51.8776Z" fill="black"/>
<path d="M104.049 45.8708L103.178 45L99.8924 48.2854L100.763 49.1562L104.049 45.8708Z" fill="black"/>
</svg>
