<svg width="40" height="40" viewBox="0 0 40 40" fill="none" xmlns="http://www.w3.org/2000/svg">
<rect width="40" height="40" rx="12" fill="#DBDEFF" fill-opacity="0.5"/>
<g clip-path="url(#clip0_0_1299)">
<path d="M20 10C25.5228 10 30 14.4771 30 20C30 25.5228 25.5228 30 20 30C14.4771 30 10 25.5228 10 20C10 14.4771 14.4771 10 20 10ZM20 12C15.5817 12 12 15.5817 12 20C12 24.4183 15.5817 28 20 28C24.4183 28 28 24.4183 28 20C28 15.5817 24.4183 12 20 12ZM20 14C20.5128 14 20.9355 14.386 20.9933 14.8834L21 15V19.5858L23.7071 22.2929C24.0976 22.6834 24.0976 23.3166 23.7071 23.7071C23.3466 24.0676 22.7794 24.0953 22.3871 23.7903L22.2929 23.7071L19.2929 20.7071C19.1367 20.5508 19.0374 20.3481 19.0087 20.1314L19 20V15C19 14.4477 19.4477 14 20 14Z" fill="#5B6CFF"/>
</g>
<defs>
<clipPath id="clip0_0_1299">
<rect width="24" height="24" fill="white" transform="translate(8 8)"/>
</clipPath>
</defs>
</svg>
