<svg width="28" height="28" viewBox="0 0 28 28" fill="none" xmlns="http://www.w3.org/2000/svg">
<g clip-path="url(#clip0_316_198267)">
<path fill-rule="evenodd" clip-rule="evenodd" d="M17.2585 3.5C17.6646 3.5 18.0562 3.64117 18.3676 3.89631L18.496 4.01256L20.3167 5.83333H23.3335C24.5636 5.83333 25.5714 6.78519 25.6604 7.99253L25.6668 8.16667V22.1667C25.6668 23.3968 24.715 24.4045 23.5076 24.4936L23.3335 24.5H4.66683C3.43674 24.5 2.42897 23.5482 2.3399 22.3408L2.3335 22.1667V8.16667C2.3335 6.93658 3.28535 5.92881 4.49269 5.83973L4.66683 5.83333H7.68359L9.50435 4.01256C9.79152 3.72539 10.1682 3.54834 10.5688 3.50856L10.7418 3.5H17.2585ZM17.0169 5.83333H10.9834L9.16264 7.6541C8.87548 7.94126 8.49879 8.11832 8.09817 8.1581L7.9252 8.16667H4.66683V22.1667H23.3335V8.16667H20.0751C19.669 8.16667 19.2775 8.02551 18.966 7.77036L18.8376 7.6541L17.0169 5.83333ZM14.0002 8.75C17.2218 8.75 19.8335 11.3617 19.8335 14.5833C19.8335 17.805 17.2218 20.4167 14.0002 20.4167C10.7785 20.4167 8.16683 17.805 8.16683 14.5833C8.16683 11.3617 10.7785 8.75 14.0002 8.75ZM14.0002 11.0833C12.0671 11.0833 10.5002 12.6503 10.5002 14.5833C10.5002 16.5164 12.0671 18.0833 14.0002 18.0833C15.9332 18.0833 17.5002 16.5164 17.5002 14.5833C17.5002 12.6503 15.9332 11.0833 14.0002 11.0833Z" fill="#5B6CFF"/>
</g>
<defs>
<clipPath id="clip0_316_198267">
<rect width="28" height="28" fill="white"/>
</clipPath>
</defs>
</svg>
