<svg width="40" height="40" viewBox="0 0 40 40" fill="none" xmlns="http://www.w3.org/2000/svg">
<rect width="40" height="40" rx="12" fill="#DBDEFF" fill-opacity="0.5"/>
<g clip-path="url(#clip0_0_349)">
<path fill-rule="evenodd" clip-rule="evenodd" d="M19.8783 13.5008C18.924 13.6179 18.0179 13.9562 17.6368 14.2712C15.4083 16.113 14.1509 18.5479 13.4978 20.6696C13.1721 21.7277 13.0024 22.6903 12.9358 23.4334C12.9015 23.8164 12.8712 24.2172 12.9286 24.6001C13.3114 25.0349 13.8542 25.3495 14.3567 25.6194C15.4082 26.1842 16.9876 26.7707 19.1102 27.0065C20.3116 27.14 21.8305 27.2163 23.2304 27.1041C24.683 26.9876 25.7968 26.6821 26.3751 26.2195C27.3485 25.4408 27.5943 24.5315 27.5059 23.7358C27.4108 22.8799 26.9295 22.1554 26.4451 21.8324C25.6111 21.2765 24.6707 21.2205 23.7845 21.4527C22.8727 21.6918 22.1234 22.2118 21.7697 22.6385C21.5901 22.8552 21.3275 22.9862 21.0464 22.9993C20.7653 23.0125 20.4916 22.9065 20.2926 22.7075C19.7426 22.1575 18.8077 21.997 17.5544 22.8325C17.2768 23.0175 16.9252 23.052 16.617 22.9243C16.3088 22.7966 16.0845 22.5237 16.0191 22.1965C15.7323 20.7623 15.8816 19.2385 16.1462 17.9819C16.4113 16.7226 16.812 15.6399 17.1053 15.0532C17.2747 14.7145 17.6209 14.5005 17.9997 14.5005C18.3785 14.5005 18.7248 14.7145 18.8942 15.0532C19.0963 15.4575 19.4675 15.8197 19.9 15.971C20.2351 15.7601 20.5259 15.4655 20.7622 15.1505C21.196 14.572 21.3403 14.0258 21.1481 13.5429C20.7559 13.4022 20.2805 13.4514 19.8783 13.5008ZM21.3621 11.5368C21.8462 11.6294 22.5531 11.871 22.8942 12.5532C23.6412 14.0473 23.0246 15.4672 22.3622 16.3504C21.9302 16.9265 21.3738 17.4685 20.7266 17.8004C20.5914 17.8698 20.316 18.0005 19.9997 18.0005C19.4085 18.0004 18.8296 17.7315 18.355 17.3957C18.265 17.7015 18.1783 18.0376 18.1033 18.3939C17.9616 19.067 17.8687 19.7791 17.8636 20.4717C18.9161 20.1314 19.9926 20.1675 20.9212 20.6919C21.5556 20.185 22.3794 19.7535 23.2774 19.5181C24.5787 19.177 26.1383 19.2242 27.5544 20.1683C28.5702 20.8454 29.3388 22.1209 29.4937 23.515C29.6553 24.9692 29.151 26.56 27.6245 27.7812C26.5462 28.6439 24.9023 28.9764 23.3903 29.0977C21.8255 29.2232 20.1726 29.1369 18.8893 28.9943C16.5118 28.7302 14.6863 28.0666 13.4104 27.3814C12.5726 26.9314 11.4281 26.31 11.0651 25.3561C10.8194 24.7105 10.8835 23.9273 10.9438 23.2549C11.0228 22.373 11.2194 21.2731 11.5863 20.0812C12.3184 17.7029 13.7513 14.8878 16.3626 12.7296C17.1661 12.0655 18.5101 11.6538 19.6346 11.5157C20.2152 11.4444 20.8256 11.4341 21.3621 11.5368Z" fill="#5B6CFF"/>
</g>
<defs>
<clipPath id="clip0_0_349">
<rect width="24" height="24" fill="white" transform="translate(8 8)"/>
</clipPath>
</defs>
</svg>
