<svg width="44" height="44" viewBox="0 0 44 44" fill="none" xmlns="http://www.w3.org/2000/svg">
<path fill-rule="evenodd" clip-rule="evenodd" d="M19.5591 0C8.75691 0 0 8.75691 0 19.5591C0 30.3613 8.75691 39.1182 19.5591 39.1182C24.1311 39.1182 28.3368 37.5496 31.6671 34.9211L40.0713 43.3253C40.9699 44.2238 42.4269 44.2238 43.3255 43.3253C44.2241 42.4267 44.2241 40.9697 43.3255 40.0711L34.9213 31.6669C37.5496 28.3365 39.1182 24.1309 39.1182 19.5591C39.1182 8.75691 30.3613 0 19.5591 0ZM4.60214 19.5591C4.60214 11.2986 11.2986 4.60214 19.5591 4.60214C27.8197 4.60214 34.5161 11.2986 34.5161 19.5591C34.5161 27.8197 27.8197 34.5161 19.5591 34.5161C11.2986 34.5161 4.60214 27.8197 4.60214 19.5591Z" fill="#A4A4A4"/>
</svg>
