<svg width="40" height="40" viewBox="0 0 40 40" fill="none" xmlns="http://www.w3.org/2000/svg">
<g clip-path="url(#clip0_316_199097)">
<path fill-rule="evenodd" clip-rule="evenodd" d="M29.2547 26.8453C30.0192 26.463 30.9369 26.7234 31.3937 27.4218L31.4907 27.5906L34.824 34.2573C35.0823 34.7739 35.0548 35.3874 34.7512 35.8788C34.4853 36.3087 34.0415 36.5915 33.5476 36.6555L33.3333 36.6693H6.66667C6.08904 36.6693 5.5526 36.3701 5.24892 35.8788C4.9832 35.4489 4.92885 34.9254 5.09247 34.4551L5.17595 34.2573L8.50929 27.5906C8.92094 26.7673 9.92207 26.4336 10.7454 26.8453C11.5098 27.2275 11.8522 28.1179 11.5676 28.9024L11.4907 29.0813L9.3634 33.3359H30.6367L28.5093 29.0813C28.0977 28.2579 28.4313 27.2569 29.2547 26.8453ZM20 3.33594C26.4433 3.33594 31.6667 8.55929 31.6667 15.0026C31.6667 18.9724 29.5188 22.1979 27.2957 24.4859C25.9271 25.8943 24.4598 27.0212 23.2657 27.8323L22.6438 28.2432L22.0894 28.5902C22.0034 28.6427 21.9208 28.6924 21.8418 28.7394L21.414 28.9883C20.5328 29.4888 19.4672 29.4888 18.586 28.9883L18.1582 28.7394L17.6427 28.4248C17.5502 28.3669 17.4546 28.3064 17.3562 28.2432L16.7343 27.8323C15.5402 27.0212 14.0729 25.8943 12.7044 24.4859C10.4811 22.1979 8.33334 18.9724 8.33334 15.0026C8.33334 8.55929 13.5567 3.33594 20 3.33594ZM20 6.66927C15.3976 6.66927 11.6667 10.4002 11.6667 15.0026C11.6667 17.7288 13.1502 20.1616 15.095 22.1629C16.4088 23.515 17.8488 24.5814 18.9522 25.3051L19.5178 25.6655C19.6934 25.774 19.855 25.8709 20 25.9558L20.4822 25.6655L21.0478 25.3051C22.1512 24.5814 23.5912 23.515 24.905 22.1629C26.8498 20.1616 28.3333 17.7288 28.3333 15.0026C28.3333 10.4002 24.6023 6.66927 20 6.66927ZM20 10.0026C22.7615 10.0026 25 12.2412 25 15.0026C25 17.7641 22.7615 20.0026 20 20.0026C17.2385 20.0026 15 17.7641 15 15.0026C15 12.2412 17.2385 10.0026 20 10.0026ZM20 13.3359C19.0795 13.3359 18.3333 14.0821 18.3333 15.0026C18.3333 15.9231 19.0795 16.6693 20 16.6693C20.9205 16.6693 21.6667 15.9231 21.6667 15.0026C21.6667 14.0821 20.9205 13.3359 20 13.3359Z" fill="#5B6CFF"/>
</g>
<defs>
<clipPath id="clip0_316_199097">
<rect width="40" height="40" fill="white"/>
</clipPath>
</defs>
</svg>
