<svg width="30" height="30" viewBox="0 0 30 30" fill="none" xmlns="http://www.w3.org/2000/svg">
<g clip-path="url(#clip0_0_1118)">
<path fill-rule="evenodd" clip-rule="evenodd" d="M13.126 2.5C7.25795 2.5 2.50098 7.25698 2.50098 13.125C2.50098 18.993 7.25795 23.75 13.126 23.75C15.6096 23.75 17.8942 22.8979 19.7034 21.47L24.2687 26.0354C24.7569 26.5235 25.5484 26.5235 26.0365 26.0354C26.5246 25.5473 26.5246 24.7558 26.0365 24.2676L21.4711 19.7022C22.8989 17.8931 23.751 15.6085 23.751 13.125C23.751 7.25698 18.994 2.5 13.126 2.5ZM5.00098 13.125C5.00098 8.63769 8.63866 5 13.126 5C17.6134 5 21.251 8.63769 21.251 13.125C21.251 17.6124 17.6134 21.25 13.126 21.25C8.63866 21.25 5.00098 17.6124 5.00098 13.125Z" fill="#A4A4A4"/>
</g>
<defs>
<clipPath id="clip0_0_1118">
<rect width="30" height="30" fill="white"/>
</clipPath>
</defs>
</svg>
