<svg width="32" height="32" viewBox="0 0 32 32" fill="none" xmlns="http://www.w3.org/2000/svg">
<g clip-path="url(#clip0_1989_111255)">
<path d="M16 17.3307C19.194 17.3307 22.1004 18.2557 24.2369 19.5594C25.3048 20.211 26.2161 20.9791 26.8747 21.8127C27.5227 22.633 28 23.6147 28 24.6641C28 25.7906 27.4519 26.6789 26.6631 27.3119C25.9157 27.9119 24.9309 28.3089 23.8837 28.5862C21.7804 29.1431 18.972 29.3307 16 29.3307C13.028 29.3307 10.2195 29.1431 8.11621 28.5862C7.06909 28.3089 6.08432 27.9119 5.33688 27.3119C4.54819 26.6789 4 25.7906 4 24.6641C4 23.6147 4.4774 22.633 5.12529 21.8127C5.78384 20.9791 6.69524 20.211 7.76303 19.5594C9.89956 18.2557 12.806 17.3307 16 17.3307ZM16 2.66406C19.6819 2.66406 22.6667 5.64884 22.6667 9.33073C22.6667 13.0126 19.6819 15.9974 16 15.9974C12.3181 15.9974 9.33333 13.0126 9.33333 9.33073C9.33333 5.64884 12.3181 2.66406 16 2.66406Z" fill="#191919"/>
</g>
<defs>
<clipPath id="clip0_1989_111255">
<rect width="32" height="32" fill="white"/>
</clipPath>
</defs>
</svg>
