<svg width="11" height="18" viewBox="0 0 11 18" fill="none" xmlns="http://www.w3.org/2000/svg">
<path d="M10.3617 9.0018C10.3516 8.6466 10.2196 8.34214 9.94562 8.06813L2.05002 0.345052C1.8166 0.121783 1.54259 0 1.20768 0C0.527727 0 0 0.527727 0 1.20768C0 1.53244 0.131932 1.83689 0.365349 2.07031L7.46936 9.0018L0.365349 15.9333C0.131932 16.1667 0 16.461 0 16.7959C0 17.4759 0.527727 18.0036 1.20768 18.0036C1.53244 18.0036 1.8166 17.8818 2.05002 17.6585L9.94562 9.92532C10.2298 9.66146 10.3617 9.357 10.3617 9.0018Z" fill="#A4A4A4"/>
</svg>
