<svg width="40" height="40" viewBox="0 0 40 40" fill="none" xmlns="http://www.w3.org/2000/svg">
<rect width="40" height="40" rx="10" fill="#DBDEFF" fill-opacity="0.5"/>
<g clip-path="url(#clip0_0_913)">
<path d="M20 10.8359C24.5564 10.8359 28.25 14.5296 28.25 19.0859C28.25 21.9036 26.7138 24.2094 25.0952 25.8642C24.2072 26.7721 23.263 27.5168 22.4582 28.0796L22.0684 28.3458C22.0056 28.3876 21.9441 28.4281 21.8838 28.4674L21.539 28.6871L21.231 28.8752L20.8498 29.0969C20.3189 29.3967 19.6811 29.3967 19.1502 29.0969L18.769 28.8752L18.2929 28.5811C18.2353 28.5445 18.1764 28.5066 18.1162 28.4674L17.74 28.2165C16.8947 27.6398 15.8668 26.8477 14.9048 25.8642C13.2862 24.2094 11.75 21.9036 11.75 19.0859C11.75 14.5296 15.4437 10.8359 20 10.8359ZM20 16.3359C18.4812 16.3359 17.25 17.5672 17.25 19.0859C17.25 20.6048 18.4812 21.8359 20 21.8359C21.5188 21.8359 22.75 20.6048 22.75 19.0859C22.75 17.5672 21.5188 16.3359 20 16.3359Z" fill="#5B6CFF"/>
</g>
<defs>
<clipPath id="clip0_0_913">
<rect width="22" height="22" fill="white" transform="translate(9 9)"/>
</clipPath>
</defs>
</svg>
