<svg width="32" height="32" viewBox="0 0 32 32" fill="none" xmlns="http://www.w3.org/2000/svg">
<g clip-path="url(#clip0_0_340)">
<path d="M21.3333 4C22.0697 4 22.6667 4.59696 22.6667 5.33333V6.66667H25.3333C26.8061 6.66667 28 7.86057 28 9.33333V25.3333C28 26.8061 26.8061 28 25.3333 28H6.66667C5.19391 28 4 26.8061 4 25.3333V9.33333C4 7.86057 5.19391 6.66667 6.66667 6.66667H9.33333V5.33333C9.33333 4.59696 9.93028 4 10.6667 4C11.4031 4 12 4.59696 12 5.33333V6.66667H20V5.33333C20 4.59696 20.5969 4 21.3333 4ZM25.3333 9.33333H6.66667V25.3333H25.3333V9.33333ZM19.7655 12.505C20.2861 11.9843 21.1304 11.9843 21.6511 12.505C22.1719 13.0257 22.1719 13.8699 21.6511 14.3905L15.0609 20.9808C14.5349 21.5067 13.6823 21.5067 13.1564 20.9808L10.3374 18.1619C9.81671 17.6411 9.81671 16.7969 10.3374 16.2761C10.8581 15.7555 11.7023 15.7555 12.223 16.2761L14.1087 18.1619L19.7655 12.505Z" fill="#C8C8C8"/>
</g>
<defs>
<clipPath id="clip0_0_340">
<rect width="32" height="32" fill="white"/>
</clipPath>
</defs>
</svg>
