<svg width="65" height="28" viewBox="0 0 65 28" fill="none" xmlns="http://www.w3.org/2000/svg">
<path d="M39.238 3.32244H39.7412C39.5399 4.32876 38.6342 5.1338 37.5273 5.1338C36.2191 5.1338 35.1121 4.02685 35.1121 2.618C35.1121 1.20916 36.2191 0.102204 37.5273 0.102204C38.6342 0.102204 39.5399 0.806647 39.7412 1.9136H39.238C39.0368 1.10854 38.433 0.605364 37.5273 0.605364C36.4203 0.605364 35.6153 1.51105 35.6153 2.618C35.6153 3.72496 36.4203 4.63064 37.5273 4.63064C38.3323 4.63064 39.0368 4.02686 39.238 3.32244Z" fill="#595757"/>
<path d="M45.3768 4.93099H44.8736V1.2076L43.2635 3.92467H42.9616L41.3515 1.10696V4.83035H40.8483V0H41.2509L43.1629 3.22024L45.0749 0H45.4774V4.93099H45.3768Z" fill="#595757"/>
<path d="M48.5968 3.2218V4.93256H48.0936V3.2218L46.1816 0.102204H46.6848L48.2949 2.71864L49.905 0.102204H50.4082L48.5968 3.2218Z" fill="#595757"/>
<path d="M51.8166 3.72496V4.93256H51.3135V0.102204H51.8166V2.91992L54.433 0.102204H55.0368L53.0242 2.31612L55.2381 4.93256H54.6343L52.6217 2.71864L51.8166 3.72496Z" fill="#595757"/>
<path d="M39.0362 13.5853C39.0362 15.0948 38.3317 16.1011 37.0235 16.1011C35.7153 16.1011 35.0109 15.0948 35.0109 13.5853C35.0109 12.0758 35.7153 11.0695 37.0235 11.0695C38.3317 11.1701 39.0362 12.1765 39.0362 13.5853ZM38.533 13.5853C38.533 12.3777 38.0298 11.5727 37.0235 11.5727C36.0172 11.5727 35.514 12.3777 35.514 13.5853C35.514 14.7929 36.0172 15.598 37.0235 15.598C38.0298 15.6986 38.533 14.7929 38.533 13.5853Z" fill="#595757"/>
<path d="M39.9419 16.0995C39.8412 16.0995 39.7406 15.9989 39.7406 15.7976C39.7406 15.5964 39.8412 15.4958 40.0425 15.4958C40.2437 15.4958 40.3444 15.5964 40.3444 15.7976C40.3444 15.8983 40.3444 15.8983 40.2438 16.0995L39.8412 17.0052H39.5393L39.9419 16.0995Z" fill="#595757"/>
<path d="M44.8736 13.5853C44.8736 15.0948 44.1692 16.1011 42.861 16.1011C41.5528 16.1011 40.8483 15.0948 40.8483 13.5853C40.8483 12.0758 41.5528 11.0695 42.861 11.0695C44.0685 11.1701 44.8736 12.1765 44.8736 13.5853ZM44.3704 13.5853C44.3704 12.3777 43.8673 11.5727 42.861 11.5727C41.8546 11.5727 41.3515 12.3777 41.3515 13.5853C41.3515 14.7929 41.8546 15.598 42.861 15.598C43.7667 15.6986 44.3704 14.7929 44.3704 13.5853Z" fill="#595757"/>
<path d="M45.6781 16.0995C45.5774 16.0995 45.4768 15.9989 45.4768 15.7976C45.4768 15.5964 45.5774 15.4958 45.7787 15.4958C45.98 15.4958 46.0806 15.5964 46.0806 15.7976C46.0806 15.8983 46.0806 15.8983 45.98 16.0995L45.5774 17.0052H45.2755L45.6781 16.0995Z" fill="#595757"/>
<path d="M50.6088 13.5853C50.6088 15.0948 49.9044 16.1011 48.5962 16.1011C47.288 16.1011 46.5836 15.0948 46.5836 13.5853C46.5836 12.0758 47.288 11.0695 48.5962 11.0695C49.9044 11.1701 50.6088 12.1765 50.6088 13.5853ZM50.1057 13.5853C50.1057 12.3777 49.6025 11.5727 48.5962 11.5727C47.5899 11.5727 47.0867 12.3777 47.0867 13.5853C47.0867 14.7929 47.5899 15.598 48.5962 15.598C49.6025 15.6986 50.1057 14.7929 50.1057 13.5853Z" fill="#595757"/>
<path d="M51.4143 16.0995C51.3137 16.0995 51.213 15.9989 51.213 15.7976C51.213 15.5964 51.3137 15.4958 51.5149 15.4958C51.7162 15.4958 51.8168 15.5964 51.8168 15.7976C51.8168 15.8983 51.8168 15.8983 51.7162 16.0995L51.3137 17.0052H51.0118L51.4143 16.0995Z" fill="#595757"/>
<path d="M55.5402 16.0021H52.5212V15.5995H53.8295V11.7755L52.6219 12.178V11.7755L54.0307 11.1717H54.3326V15.4989H55.5402V16.0021Z" fill="#595757"/>
<path d="M59.9684 13.5853C59.9684 15.0948 59.264 16.1011 57.9558 16.1011C56.6475 16.1011 55.9431 15.0948 55.9431 13.5853C55.9431 12.0758 56.6475 11.0695 57.9558 11.0695C59.264 11.1701 59.9684 12.1765 59.9684 13.5853ZM59.4652 13.5853C59.4652 12.3777 58.9621 11.5727 57.9558 11.5727C56.9494 11.5727 56.4463 12.3777 56.4463 13.5853C56.4463 14.7929 56.9494 15.598 57.9558 15.598C58.9621 15.6986 59.4652 14.7929 59.4652 13.5853Z" fill="#595757"/>
<path d="M65 13.5853C65 15.0948 64.2956 16.1011 62.9874 16.1011C61.6791 16.1011 60.9747 15.0948 60.9747 13.5853C60.9747 12.0758 61.6791 11.0695 62.9874 11.0695C64.1949 11.1701 65 12.1765 65 13.5853ZM64.4968 13.5853C64.4968 12.3777 63.9937 11.5727 62.9874 11.5727C61.981 11.5727 61.4779 12.3777 61.4779 13.5853C61.4779 14.7929 61.981 15.598 62.9874 15.598C63.893 15.6986 64.4968 14.7929 64.4968 13.5853Z" fill="#595757"/>
<path d="M35.5144 25.4567H34.9106V25.0542H35.6151L35.7157 23.8466H35.1119V23.4441H35.8163L36.0176 21.9346H36.4201L36.2189 23.4441H37.2252L37.4264 21.9346H37.829L37.6277 23.4441H38.2315V23.8466H37.5271L37.4264 25.0542H38.0302V25.4567H37.3258L37.1245 27.0669H36.722L36.9233 25.4567H35.917L35.7157 27.0669H35.3132L35.5144 25.4567ZM36.9233 25.0542L37.0239 23.8466H36.0176L35.917 25.0542H36.9233Z" fill="#595757"/>
<path d="M41.9553 27.0716H38.9363V26.8703L40.4458 25.2602C41.0496 24.6564 41.4521 24.2539 41.4521 23.6501C41.4521 23.1469 41.0496 22.6438 40.4458 22.6438C39.842 22.6438 39.4395 23.0463 39.3388 23.6501H38.8357C38.8357 22.845 39.4395 22.2412 40.3452 22.2412C41.3515 22.2412 41.8546 22.845 41.8546 23.6501C41.8546 24.2539 41.4521 24.6564 40.7477 25.4615L39.5401 26.7697H41.8546V27.0716H41.9553Z" fill="#595757"/>
<path d="M45.7785 25.8656C45.7785 26.6706 45.1747 27.2744 44.1684 27.2744C43.1621 27.2744 42.6589 26.7713 42.5583 25.9662H43.0614C43.1621 26.4694 43.5646 26.7712 44.269 26.7712C44.9735 26.7712 45.376 26.3687 45.376 25.8656C45.376 25.2618 44.9735 24.9599 44.269 24.9599H43.8665V24.5574H44.269C44.8728 24.5574 45.2754 24.1548 45.2754 23.6516C45.2754 23.0479 44.8728 22.746 44.269 22.746C43.6652 22.746 43.3634 23.0479 43.2627 23.551H42.7596C42.8602 22.8466 43.3634 22.3434 44.269 22.3434C45.1747 22.3434 45.7785 22.8466 45.7785 23.7523C45.7785 24.2554 45.5772 24.658 45.1747 24.8592C45.4766 24.8592 45.7785 25.2618 45.7785 25.8656Z" fill="#595757"/>
<path d="M49.6025 27.0716H46.5836V26.669H47.8918V22.845L46.6842 23.2476V22.845L48.093 22.2412H48.3949V26.5684H49.6025V27.0716Z" fill="#595757"/>
<path d="M53.6284 25.7618C53.6284 26.5668 52.924 27.1706 51.9176 27.1706C50.9113 27.1706 50.2069 26.5668 50.2069 25.7618C50.2069 25.158 50.5088 24.7555 51.1126 24.5542C50.7101 24.353 50.4082 24.0511 50.4082 23.4473C50.4082 22.7428 51.012 22.139 51.9176 22.139C52.8233 22.139 53.4271 22.6422 53.4271 23.4473C53.4271 23.9504 53.1252 24.353 52.7227 24.5542C53.2259 24.7555 53.6284 25.2586 53.6284 25.7618ZM53.0246 25.7618C53.0246 25.158 52.5214 24.7555 51.817 24.7555C51.1126 24.7555 50.6094 25.158 50.6094 25.7618C50.6094 26.3656 51.1126 26.7681 51.817 26.7681C52.5214 26.7681 53.0246 26.3656 53.0246 25.7618ZM51.817 24.4536C52.4208 24.4536 52.924 24.0511 52.924 23.5479C52.924 23.0447 52.5214 22.6422 51.817 22.6422C51.2132 22.6422 50.7101 23.0447 50.7101 23.5479C50.8107 24.0511 51.2132 24.4536 51.817 24.4536Z" fill="#595757"/>
<path d="M57.4526 27.0716H54.4336V26.669H55.7419V22.845L54.5343 23.2476V22.845L55.9431 22.2412H56.245V26.5684H57.4526V27.0716Z" fill="#595757"/>
<path d="M59.5653 24.1548C60.5716 24.1548 61.1754 24.7586 61.1754 25.6643C61.1754 26.57 60.471 27.2744 59.5653 27.2744C58.559 27.2744 57.9552 26.7712 57.8545 25.8656H58.3577C58.4583 26.4694 58.8609 26.7712 59.5653 26.7712C60.2697 26.7712 60.7729 26.2681 60.7729 25.6643C60.7729 25.0605 60.3703 24.658 59.5653 24.658H58.2571V22.3434H60.9741V22.746H58.6596V24.1548H59.5653Z" fill="#595757"/>
<path d="M18.2079 25.6117C24.6859 22.6715 27.5538 15.0366 24.6136 8.55866C21.6734 2.08072 14.0385 -0.78721 7.56057 2.15297C1.08264 5.09316 -1.78526 12.7281 1.15492 19.206C4.09511 25.6839 11.73 28.5518 18.2079 25.6117Z" fill="black"/>
</svg>
