<svg width="22" height="28" viewBox="0 0 22 28" fill="none" xmlns="http://www.w3.org/2000/svg">
<path d="M14.9901 4.31801C15.8236 3.30683 16.4112 1.92671 16.4112 0.532919C16.4112 0.341615 16.3975 0.150311 16.3702 0C15.0037 0.0546584 13.364 0.901863 12.3938 2.04969C11.6149 2.92422 10.9043 4.31801 10.9043 5.7118C10.9043 5.93043 10.9453 6.1354 10.959 6.20373C11.041 6.21739 11.1776 6.24472 11.328 6.24472C12.5441 6.24472 14.0745 5.42484 14.9901 4.31801ZM15.9466 6.53168C13.9106 6.53168 12.2435 7.77516 11.1776 7.77516C10.0435 7.77516 8.5677 6.61366 6.7913 6.61366C3.41615 6.61366 0 9.40124 0 14.6484C0 17.928 1.25714 21.3851 2.82857 23.6124C4.1677 25.4981 5.34286 27.0422 7.03727 27.0422C8.70435 27.0422 9.44224 25.9354 11.5193 25.9354C13.6236 25.9354 14.1019 27.0149 15.9466 27.0149C17.7776 27.0149 18.9938 25.3342 20.1553 23.6807C21.4398 21.7814 21.9863 19.9366 22 19.841C21.8907 19.8137 18.3925 18.3789 18.3925 14.3752C18.3925 10.9043 21.1391 9.34658 21.3031 9.2236C19.4857 6.61366 16.7118 6.53168 15.9466 6.53168Z" fill="white"/>
</svg>
