<svg width="183" height="18" viewBox="0 0 183 18" fill="none" xmlns="http://www.w3.org/2000/svg">
<path d="M0 9.0018C0 9.357 0.131932 9.66146 0.416092 9.92532L8.3117 17.6585C8.53496 17.8818 8.81913 18.0036 9.15403 18.0036C9.82384 18.0036 10.3617 17.4759 10.3617 16.7959C10.3617 16.461 10.2196 16.1667 9.99636 15.9333L2.8822 9.0018L9.99636 2.07031C10.2196 1.83689 10.3617 1.53244 10.3617 1.20768C10.3617 0.527727 9.82384 0 9.15403 0C8.81913 0 8.53496 0.121783 8.3117 0.345052L0.416092 8.06813C0.131932 8.34214 0 8.6466 0 9.0018Z" fill="#A4A4A4"/>
<path d="M182.362 9.0018C182.352 8.6466 182.22 8.34214 181.946 8.06813L174.05 0.345052C173.817 0.121783 173.543 0 173.208 0C172.528 0 172 0.527727 172 1.20768C172 1.53244 172.132 1.83689 172.365 2.07031L179.469 9.0018L172.365 15.9333C172.132 16.1667 172 16.461 172 16.7959C172 17.4759 172.528 18.0036 173.208 18.0036C173.532 18.0036 173.817 17.8818 174.05 17.6585L181.946 9.92532C182.23 9.66146 182.362 9.357 182.362 9.0018Z" fill="#A4A4A4"/>
</svg>
