<svg width="26" height="27" viewBox="0 0 26 27" fill="none" xmlns="http://www.w3.org/2000/svg">
<path fill-rule="evenodd" clip-rule="evenodd" d="M26.0002 13.5684C26.0002 12.6278 25.9158 11.7233 25.759 10.855H13.2655V15.9863H20.4046C20.0971 17.6445 19.1625 19.0494 17.7576 19.99V23.3184H22.0447C24.5531 21.0091 26.0002 17.6083 26.0002 13.5684Z" fill="#4285F4"/>
<path fill-rule="evenodd" clip-rule="evenodd" d="M13.2655 26.5312C16.8471 26.5312 19.8499 25.3434 22.0447 23.3174L17.7576 19.989C16.5698 20.7849 15.0503 21.2552 13.2655 21.2552C9.81047 21.2552 6.88607 18.9217 5.84293 15.7863H1.4111V19.2232C3.59385 23.5586 8.07995 26.5312 13.2655 26.5312Z" fill="#34A853"/>
<path fill-rule="evenodd" clip-rule="evenodd" d="M5.84278 15.7848C5.57748 14.9889 5.42674 14.1387 5.42674 13.2644C5.42674 12.3901 5.57748 11.5399 5.84278 10.744V7.30702H1.41095C0.512525 9.09784 0 11.1238 0 13.2644C0 15.4049 0.512525 17.4309 1.41095 19.2217L5.84278 15.7848Z" fill="#FBBC05"/>
<path fill-rule="evenodd" clip-rule="evenodd" d="M13.2655 5.27599C15.2131 5.27599 16.9617 5.94529 18.3365 7.25977L22.1412 3.45502C19.8439 1.31448 16.8411 0 13.2655 0C8.07995 0 3.59385 2.97265 1.4111 7.308L5.84293 10.7449C6.88607 7.60949 9.81047 5.27599 13.2655 5.27599Z" fill="#EA4335"/>
</svg>
