<svg width="20" height="20" viewBox="0 0 20 20" fill="none" xmlns="http://www.w3.org/2000/svg">
<g clip-path="url(#clip0_0_137)">
<path d="M10 10.8307C11.9963 10.8307 13.8127 11.4088 15.1481 12.2236C15.8155 12.6309 16.3851 13.111 16.7967 13.632C17.2017 14.1446 17.5 14.7582 17.5 15.4141C17.5 16.1181 17.1574 16.6733 16.6644 17.069C16.1973 17.444 15.5818 17.6921 14.9273 17.8654C13.6128 18.2135 11.8575 18.3307 10 18.3307C8.14251 18.3307 6.38722 18.2135 5.07263 17.8654C4.41818 17.6921 3.8027 17.444 3.33555 17.069C2.84262 16.6733 2.5 16.1181 2.5 15.4141C2.5 14.7582 2.79838 14.1446 3.20331 13.632C3.6149 13.111 4.18452 12.6309 4.85189 12.2236C6.18722 11.4088 8.00378 10.8307 10 10.8307ZM10 1.66406C12.3012 1.66406 14.1667 3.52955 14.1667 5.83073C14.1667 8.13191 12.3012 9.9974 10 9.9974C7.69882 9.9974 5.83333 8.13191 5.83333 5.83073C5.83333 3.52955 7.69882 1.66406 10 1.66406Z" fill="#A4A4A4"/>
</g>
<defs>
<clipPath id="clip0_0_137">
<rect width="20" height="20" fill="white"/>
</clipPath>
</defs>
</svg>
