<svg width="92" height="19" viewBox="0 0 92 19" fill="none" xmlns="http://www.w3.org/2000/svg">
<path d="M6.06169 14.3256L1.29893 6.53551L1.24481 6.43023H0V18.6944H1.62367L1.56954 9.95685L5.57458 16.3784H6.60291L10.5538 10.0095V18.6944H12.1775V6.43023H10.9327L6.06169 14.3256Z" fill="black"/>
<path d="M20.0254 12.7992L15.8579 6.43023H14.0178L19.2135 14.3256V18.6944H20.8913V14.3256L26.0871 6.43023H24.2469L20.0254 12.7992Z" fill="black"/>
<path d="M43.0272 6.43023L38.3186 16.5364L33.6099 6.43023H31.7698L37.5609 18.6944L37.615 18.7997H39.0222L44.8674 6.43023H43.0272Z" fill="black"/>
<path d="M60.617 6.43023H58.9933V18.6944H67.4364V17.2206H60.617V6.43023Z" fill="black"/>
<path d="M78.2063 13.4835C78.2063 15.8521 76.6368 17.4838 74.4719 17.4838C72.2529 17.4838 70.7374 15.8521 70.7374 13.4835V6.43023H69.1138V13.4308C69.1138 16.6943 71.3328 18.9576 74.526 18.9576C77.7192 18.9576 79.9382 16.6943 79.9382 13.4308V6.43023H78.3146V13.4835H78.2063Z" fill="black"/>
<path d="M82.6447 7.95668V6.43023H91.5208V18.6944H82.6447V17.2206H89.843V13.3782H83.3483V11.8517H89.843V7.95668H82.6447Z" fill="black"/>
<path d="M51.3075 6.42612L51.2533 6.32085H49.7921L44.1092 18.6903H45.8411L50.5498 8.47893L52.9311 13.7425L53.6347 15.2163L55.2043 18.6903H56.9903L51.3075 6.42612Z" fill="black"/>
<path d="M92.0001 0.818821L91.1581 0L87.9817 3.08917L88.8237 3.90799L92.0001 0.818821Z" fill="black"/>
</svg>
