<svg width="32" height="32" viewBox="0 0 32 32" fill="none" xmlns="http://www.w3.org/2000/svg">
<g clip-path="url(#clip0_0_799)">
<path fill-rule="evenodd" clip-rule="evenodd" d="M14.4 3.53333C14.8616 3.18714 15.423 3 16 3C16.577 3 17.1384 3.18714 17.6 3.53333L26.9333 10.5333C27.2645 10.7817 27.5333 11.1038 27.7185 11.4741C27.9036 11.8444 28 12.2527 28 12.6667V25.3333C28 26.0406 27.719 26.7189 27.219 27.219C26.7189 27.719 26.0406 28 25.3333 28H18.8C18.411 28 18.038 27.8455 17.7629 27.5704C17.4879 27.2954 17.3333 26.9223 17.3333 26.5333V18.6667C17.3333 18.313 17.1929 17.9739 16.9428 17.7239C16.6928 17.4738 16.3536 17.3333 16 17.3333C15.6464 17.3333 15.3072 17.4738 15.0572 17.7239C14.8071 17.9739 14.6667 18.313 14.6667 18.6667V26.5333C14.6667 26.7259 14.6287 26.9167 14.555 27.0946C14.4813 27.2725 14.3733 27.4342 14.2371 27.5704C14.1009 27.7066 13.9392 27.8146 13.7613 27.8884C13.5833 27.9621 13.3926 28 13.2 28H6.66667C5.95942 28 5.28115 27.719 4.78105 27.219C4.28095 26.7189 4 26.0406 4 25.3333V12.6667C4 12.2527 4.09639 11.8444 4.28153 11.4741C4.46667 11.1038 4.73548 10.7817 5.06667 10.5333L14.4 3.53333ZM16 5.66667L6.66667 12.6667V25.3333H12V18.6667C12 17.6058 12.4214 16.5884 13.1716 15.8382C13.9217 15.0881 14.9391 14.6667 16 14.6667C17.0609 14.6667 18.0783 15.0881 18.8284 15.8382C19.5786 16.5884 20 17.6058 20 18.6667V25.3333H25.3333V12.6667L16 5.66667Z" fill="#C8C8C8"/>
</g>
<defs>
<clipPath id="clip0_0_799">
<rect width="32" height="32" fill="white"/>
</clipPath>
</defs>
</svg>
