<svg width="42" height="42" viewBox="0 0 42 42" fill="none" xmlns="http://www.w3.org/2000/svg">
<g clip-path="url(#clip0_316_195137)">
<path d="M21 3.5C30.6649 3.5 38.5 11.335 38.5 21C38.5 30.6649 30.6649 38.5 21 38.5C11.335 38.5 3.5 30.6649 3.5 21C3.5 11.335 11.335 3.5 21 3.5ZM17.2878 14.8128C16.6044 14.1293 15.4963 14.1293 14.8129 14.8128C14.1821 15.4436 14.1335 16.4363 14.6673 17.1228L14.8129 17.2876L18.5252 20.9998L14.8128 24.7123C14.1293 25.3956 14.1293 26.5037 14.8128 27.1871C15.4436 27.8179 16.4363 27.8665 17.1228 27.3327L17.2876 27.1871L21 23.4747L24.7125 27.1871C25.3958 27.8705 26.5039 27.8705 27.1873 27.1871C27.8181 26.5563 27.8666 25.5636 27.3329 24.8771L27.1873 24.7123L23.4748 20.9998L27.1871 17.2876C27.8705 16.6042 27.8705 15.4961 27.1871 14.8127C26.5563 14.1819 25.5636 14.1333 24.8771 14.6671L24.7123 14.8127L21 18.525L17.2878 14.8128Z" fill="#A4A4A4"/>
</g>
<defs>
<clipPath id="clip0_316_195137">
<rect width="42" height="42" fill="white"/>
</clipPath>
</defs>
</svg>
