<svg width="20" height="20" viewBox="0 0 20 20" fill="none" xmlns="http://www.w3.org/2000/svg">
<g clip-path="url(#clip0_0_1425)">
<path d="M9.99935 1.66406C14.6017 1.66406 18.3327 5.39502 18.3327 9.9974C18.3327 14.5997 14.6017 18.3307 9.99935 18.3307C5.39697 18.3307 1.66602 14.5997 1.66602 9.9974C1.66602 5.39502 5.39697 1.66406 9.99935 1.66406ZM12.9455 6.98186L8.82068 11.1066L7.05294 9.3389C6.72751 9.01348 6.19987 9.01348 5.87443 9.3389C5.549 9.66431 5.549 10.192 5.87443 10.5174L8.17253 12.8155C8.53052 13.1735 9.11093 13.1735 9.46893 12.8155L14.124 8.16037C14.4494 7.83494 14.4494 7.3073 14.124 6.98186C13.7986 6.65642 13.2709 6.65642 12.9455 6.98186Z" fill="#A4A4A4"/>
</g>
<defs>
<clipPath id="clip0_0_1425">
<rect width="20" height="20" fill="white"/>
</clipPath>
</defs>
</svg>
