<svg width="42" height="42" viewBox="0 0 42 42" fill="none" xmlns="http://www.w3.org/2000/svg">
<g clip-path="url(#clip0_316_197693)">
<path d="M18.8229 10.7935L31.1972 23.1678L18.6432 35.722C18.0597 36.3055 17.2915 36.6616 16.4761 36.7336L16.1683 36.7471H7.01121C6.10019 36.7471 5.35005 36.0578 5.25409 35.1722L5.24371 34.9796V25.8224C5.24371 24.9973 5.53507 24.2023 6.0608 23.5747L6.26883 23.3475L18.8229 10.7935ZM24.3178 5.29857C25.6127 4.00367 27.6698 3.93551 29.045 5.09411L29.2676 5.29857L36.6922 12.7232C37.987 14.0181 38.0552 16.0752 36.8966 17.4504L36.6922 17.673L33.672 20.693L21.2978 8.31865L24.3178 5.29857Z" fill="#A4A4A4"/>
</g>
<defs>
<clipPath id="clip0_316_197693">
<rect width="42" height="42" fill="white"/>
</clipPath>
</defs>
</svg>
