<svg width="32" height="32" viewBox="0 0 32 32" fill="none" xmlns="http://www.w3.org/2000/svg">
<g clip-path="url(#clip0_0_101)">
<path d="M14.3413 8.22549L23.7693 17.6535L14.2044 27.2186C13.7598 27.6632 13.1745 27.9345 12.5532 27.9893L12.3188 27.9997H5.34191C4.64779 27.9997 4.07626 27.4744 4.00314 26.7997L3.99524 26.653V19.6761C3.99524 19.0474 4.21722 18.4417 4.61778 17.9636L4.77628 17.7905L14.3413 8.22549ZM18.5279 4.03886C19.5145 3.05227 21.0818 3.00035 22.1296 3.88309L22.2992 4.03886L27.956 9.69572C28.9425 10.6823 28.9944 12.2496 28.1118 13.2974L27.956 13.467L25.6549 15.7679L16.2269 6.33988L18.5279 4.03886Z" fill="#191919"/>
</g>
<defs>
<clipPath id="clip0_0_101">
<rect width="32" height="32" fill="white"/>
</clipPath>
</defs>
</svg>
