<svg width="20" height="20" viewBox="0 0 20 20" fill="none" xmlns="http://www.w3.org/2000/svg">
<g clip-path="url(#clip0_0_128)">
<path d="M10 1.66406C14.1422 1.66406 17.5 5.02193 17.5 9.16406C17.5 11.7256 16.1034 13.8217 14.632 15.3261C13.8247 16.1515 12.9664 16.8285 12.2348 17.3402L11.8803 17.5821C11.8233 17.6201 11.7673 17.657 11.7126 17.6926L11.3991 17.8924L11.1191 18.0634L10.7726 18.2649C10.2899 18.5375 9.71008 18.5375 9.22742 18.2649L8.88094 18.0634L8.44805 17.7961C8.39576 17.7628 8.34219 17.7283 8.28743 17.6926L7.94541 17.4646C7.17704 16.9403 6.24255 16.2202 5.36802 15.3261C3.89658 13.8217 2.5 11.7256 2.5 9.16406C2.5 5.02193 5.85787 1.66406 10 1.66406ZM10 6.66406C8.61925 6.66406 7.5 7.78335 7.5 9.16406C7.5 10.5448 8.61925 11.6641 10 11.6641C11.3807 11.6641 12.5 10.5448 12.5 9.16406C12.5 7.78335 11.3807 6.66406 10 6.66406Z" fill="#A4A4A4"/>
</g>
<defs>
<clipPath id="clip0_0_128">
<rect width="20" height="20" fill="white"/>
</clipPath>
</defs>
</svg>
