<svg width="26" height="26" viewBox="0 0 26 26" fill="none" xmlns="http://www.w3.org/2000/svg">
<g clip-path="url(#clip0_316_196749)">
<path fill-rule="evenodd" clip-rule="evenodd" d="M11.3756 2.16406C6.28995 2.16406 2.16724 6.28677 2.16724 11.3724C2.16724 16.458 6.28995 20.5807 11.3756 20.5807C13.528 20.5807 15.5081 19.8422 17.076 18.6047L21.0326 22.5614C21.4557 22.9844 22.1416 22.9844 22.5647 22.5614C22.9877 22.1383 22.9877 21.4524 22.5647 21.0293L18.608 17.0727C19.8454 15.5048 20.5839 13.5248 20.5839 11.3724C20.5839 6.28677 16.4612 2.16406 11.3756 2.16406ZM4.3339 11.3724C4.3339 7.48339 7.48657 4.33073 11.3756 4.33073C15.2646 4.33073 18.4172 7.48339 18.4172 11.3724C18.4172 15.2615 15.2646 18.4141 11.3756 18.4141C7.48657 18.4141 4.3339 15.2615 4.3339 11.3724Z" fill="white"/>
</g>
<defs>
<clipPath id="clip0_316_196749">
<rect width="26" height="26" fill="white"/>
</clipPath>
</defs>
</svg>
