<svg width="40" height="40" viewBox="0 0 40 40" fill="none" xmlns="http://www.w3.org/2000/svg">
<rect width="40" height="40" rx="12" fill="#CAFFD9" fill-opacity="0.5"/>
<g clip-path="url(#clip0_0_167)">
<path fill-rule="evenodd" clip-rule="evenodd" d="M20 21C22.3955 21 24.5753 21.6937 26.1777 22.6715C26.9786 23.1602 27.6621 23.7363 28.156 24.3615C28.642 24.9767 29 25.713 29 26.5C29 27.3449 28.5889 28.0111 27.9973 28.4859C27.4368 28.9359 26.6982 29.2336 25.9128 29.4416C24.3353 29.8593 22.229 30 20 30C17.771 30 15.6647 29.8593 14.0872 29.4416C13.3018 29.2336 12.5632 28.9359 12.0027 28.4859C11.4111 28.0111 11 27.3449 11 26.5C11 25.713 11.3581 24.9767 11.844 24.3615C12.3379 23.7363 13.0214 23.1602 13.8223 22.6715C15.4247 21.6937 17.6045 21 20 21ZM20 23C17.9772 23 16.1571 23.5898 14.864 24.3788C14.2171 24.7735 13.7291 25.2015 13.4134 25.6013C13.0897 26.0111 13 26.3206 13 26.5C13 26.6216 13.0366 26.7512 13.2547 26.9263C13.5038 27.1262 13.9368 27.3328 14.5991 27.5082C15.9171 27.8572 17.8107 28 20 28C22.1893 28 24.0829 27.8572 25.4009 27.5082C26.0632 27.3328 26.4962 27.1262 26.7453 26.9263C26.9634 26.7512 27 26.6216 27 26.5C27 26.3206 26.9103 26.0111 26.5866 25.6013C26.2709 25.2015 25.7829 24.7735 25.136 24.3788C23.8429 23.5898 22.0228 23 20 23ZM20 10C22.7614 10 25 12.2386 25 15C25 17.7614 22.7614 20 20 20C17.2386 20 15 17.7614 15 15C15 12.2386 17.2386 10 20 10ZM20 12C18.3431 12 17 13.3432 17 15C17 16.6568 18.3431 18 20 18C21.6569 18 23 16.6568 23 15C23 13.3432 21.6569 12 20 12Z" fill="#00C92C"/>
</g>
<defs>
<clipPath id="clip0_0_167">
<rect width="24" height="24" fill="white" transform="translate(8 8)"/>
</clipPath>
</defs>
</svg>
