<svg width="32" height="32" viewBox="0 0 32 32" fill="none" xmlns="http://www.w3.org/2000/svg">
<g clip-path="url(#clip0_0_460)">
<path fill-rule="evenodd" clip-rule="evenodd" d="M16 17.3307C19.194 17.3307 22.1004 18.2557 24.2369 19.5594C25.3048 20.211 26.2161 20.9791 26.8747 21.8127C27.5227 22.633 28 23.6147 28 24.6641C28 25.7906 27.4519 26.6789 26.6631 27.3119C25.9157 27.9119 24.9309 28.3089 23.8837 28.5862C21.7804 29.1431 18.972 29.3307 16 29.3307C13.028 29.3307 10.2195 29.1431 8.11621 28.5862C7.06909 28.3089 6.08432 27.9119 5.33688 27.3119C4.54819 26.6789 4 25.7906 4 24.6641C4 23.6147 4.4774 22.633 5.12529 21.8127C5.78384 20.9791 6.69524 20.211 7.76303 19.5594C9.89956 18.2557 12.806 17.3307 16 17.3307ZM16 19.9974C13.3029 19.9974 10.8761 20.7838 9.15203 21.8358C8.28952 22.3621 7.63884 22.9327 7.21785 23.4658C6.78623 24.0122 6.66667 24.4249 6.66667 24.6641C6.66667 24.8262 6.71543 24.999 7.00627 25.2325C7.33835 25.499 7.91568 25.7745 8.79885 26.0083C10.5561 26.4737 13.0809 26.6641 16 26.6641C18.9191 26.6641 21.4439 26.4737 23.2012 26.0083C24.0843 25.7745 24.6616 25.499 24.9937 25.2325C25.2845 24.999 25.3333 24.8262 25.3333 24.6641C25.3333 24.4249 25.2137 24.0122 24.7821 23.4658C24.3612 22.9327 23.7105 22.3621 22.848 21.8358C21.1239 20.7838 18.6971 19.9974 16 19.9974ZM16 2.66406C19.6819 2.66406 22.6667 5.64884 22.6667 9.33073C22.6667 13.0126 19.6819 15.9974 16 15.9974C12.3181 15.9974 9.33333 13.0126 9.33333 9.33073C9.33333 5.64884 12.3181 2.66406 16 2.66406ZM16 5.33073C13.7908 5.33073 12 7.1216 12 9.33073C12 11.5399 13.7908 13.3307 16 13.3307C18.2092 13.3307 20 11.5399 20 9.33073C20 7.1216 18.2092 5.33073 16 5.33073Z" fill="#C8C8C8"/>
</g>
<defs>
<clipPath id="clip0_0_460">
<rect width="32" height="32" fill="white"/>
</clipPath>
</defs>
</svg>
