<svg width="32" height="32" viewBox="0 0 32 32" fill="none" xmlns="http://www.w3.org/2000/svg">
<g clip-path="url(#clip0_0_477)">
<path d="M15.9998 2.66406C23.3636 2.66406 29.3332 8.6336 29.3332 15.9974C29.3332 23.3611 23.3636 29.3307 15.9998 29.3307H5.33317C3.86041 29.3307 2.6665 28.1369 2.6665 26.6641V15.9974C2.6665 8.6336 8.63604 2.66406 15.9998 2.66406ZM15.9998 5.33073C10.1088 5.33073 5.33317 10.1064 5.33317 15.9974V26.6641H15.9998C21.8909 26.6641 26.6665 21.8885 26.6665 15.9974C26.6665 10.1064 21.8909 5.33073 15.9998 5.33073ZM15.9998 18.6641C16.7362 18.6641 17.3332 19.261 17.3332 19.9974C17.3332 20.6812 16.8185 21.2447 16.1553 21.3218L15.9998 21.3307H11.9998C11.2635 21.3307 10.6665 20.7338 10.6665 19.9974C10.6665 19.3136 11.1812 18.75 11.8443 18.673L11.9998 18.6641H15.9998ZM19.9998 13.3307C20.7362 13.3307 21.3332 13.9277 21.3332 14.6641C21.3332 15.4005 20.7362 15.9974 19.9998 15.9974H11.9998C11.2635 15.9974 10.6665 15.4005 10.6665 14.6641C10.6665 13.9277 11.2635 13.3307 11.9998 13.3307H19.9998Z" fill="#C8C8C8"/>
</g>
<defs>
<clipPath id="clip0_0_477">
<rect width="32" height="32" fill="white"/>
</clipPath>
</defs>
</svg>
