<svg width="20" height="20" viewBox="0 0 20 20" fill="none" xmlns="http://www.w3.org/2000/svg">
<g clip-path="url(#clip0_0_120)">
<path d="M17.5 10V15.8333C17.5 16.7538 16.7538 17.5 15.8333 17.5H4.16667C3.24619 17.5 2.5 16.7538 2.5 15.8333V10H17.5ZM13.3333 2.5C13.7936 2.5 14.1667 2.8731 14.1667 3.33333V4.16667H15.8333C16.7538 4.16667 17.5 4.91286 17.5 5.83333V8.33333H2.5V5.83333C2.5 4.91286 3.24619 4.16667 4.16667 4.16667H5.83333V3.33333C5.83333 2.8731 6.20643 2.5 6.66667 2.5C7.1269 2.5 7.5 2.8731 7.5 3.33333V4.16667H12.5V3.33333C12.5 2.8731 12.8731 2.5 13.3333 2.5Z" fill="#A4A4A4"/>
</g>
<defs>
<clipPath id="clip0_0_120">
<rect width="20" height="20" fill="white"/>
</clipPath>
</defs>
</svg>
