<svg width="34" height="34" viewBox="0 0 34 34" fill="none" xmlns="http://www.w3.org/2000/svg">
<g clip-path="url(#clip0_316_195340)">
<path d="M21.2502 26.9193C21.2502 28.413 20.0944 29.6367 18.6283 29.7448L18.4168 29.7526H15.5835C14.0898 29.7526 12.8661 28.5968 12.7579 27.1307L12.7502 26.9193H21.2502ZM17.0004 2.83594C22.3632 2.83594 26.7317 7.09272 26.9114 12.4117L26.9171 12.7526V18.0848L29.4983 23.2474C29.9917 24.2342 29.3318 25.3869 28.2672 25.4945L28.1046 25.5026H5.89628C4.79301 25.5026 4.05707 24.3969 4.43701 23.3965L4.50247 23.2474L7.08372 18.0848V12.7526C7.08372 7.27578 11.5236 2.83594 17.0004 2.83594Z" fill="#E0E0E0"/>
<circle cx="31" cy="3" r="3" fill="#FD2D53"/>
</g>
<defs>
<clipPath id="clip0_316_195340">
<rect width="34" height="34" fill="white"/>
</clipPath>
</defs>
</svg>
