<svg width="38" height="38" viewBox="0 0 38 38" fill="none" xmlns="http://www.w3.org/2000/svg">
<g clip-path="url(#clip0_316_195401)">
<path d="M19.2696 28.6526H19.3757L19.4111 28.5526C20.0426 26.7658 21.7467 25.4859 23.7494 25.4859C25.752 25.4859 27.4562 26.7658 28.0877 28.5526L28.123 28.6526H28.2291H30.0827C31.04 28.6526 31.816 27.8766 31.816 26.9193V11.0859C31.816 10.1287 31.04 9.3526 30.0827 9.3526H28.2291H28.123L28.0877 9.45262C27.4562 11.2394 25.752 12.5193 23.7494 12.5193C21.7467 12.5193 20.0426 11.2394 19.4111 9.45262L19.3757 9.3526H19.2696H7.91602C6.95873 9.3526 6.18268 10.1287 6.18268 11.0859V26.9193C6.18268 27.8766 6.95873 28.6526 7.91602 28.6526H19.2696ZM3.31602 11.0859C3.31602 8.54543 5.37551 6.48594 7.91602 6.48594H20.5827C21.3743 6.48594 22.016 7.12767 22.016 7.91927C22.016 8.87656 22.792 9.6526 23.7494 9.6526C24.7067 9.6526 25.4827 8.87656 25.4827 7.91927C25.4827 7.12767 26.1244 6.48594 26.916 6.48594H30.0827C32.6233 6.48594 34.6827 8.54543 34.6827 11.0859V26.9193C34.6827 29.4599 32.6233 31.5193 30.0827 31.5193H26.916C26.1244 31.5193 25.4827 30.8776 25.4827 30.0859C25.4827 29.1286 24.7067 28.3526 23.7494 28.3526C22.792 28.3526 22.016 29.1286 22.016 30.0859C22.016 30.8776 21.3743 31.5193 20.5827 31.5193H7.91602C5.37551 31.5193 3.31602 29.4599 3.31602 26.9193V11.0859ZM23.7494 14.4026C24.541 14.4026 25.1827 15.0443 25.1827 15.8359V16.6276C25.1827 17.4192 24.541 18.0609 23.7494 18.0609C22.9577 18.0609 22.316 17.4192 22.316 16.6276V15.8359C22.316 15.0443 22.9577 14.4026 23.7494 14.4026ZM23.7494 19.9443C24.541 19.9443 25.1827 20.586 25.1827 21.3776V22.1693C25.1827 22.9609 24.541 23.6026 23.7494 23.6026C22.9577 23.6026 22.316 22.9609 22.316 22.1693V21.3776C22.316 20.586 22.9577 19.9443 23.7494 19.9443Z" fill="#A4A4A4" stroke="white" stroke-width="0.3"/>
</g>
<defs>
<clipPath id="clip0_316_195401">
<rect width="38" height="38" fill="white"/>
</clipPath>
</defs>
</svg>
