<svg width="18" height="18" viewBox="0 0 18 18" fill="none" xmlns="http://www.w3.org/2000/svg">
<path d="M8.3 11.1H9.7V12.5H8.3V11.1ZM8.3 5.5H9.7V9.7H8.3V5.5ZM9 2C5.129 2 2 5.15 2 9C2 10.8565 2.7375 12.637 4.05025 13.9497C4.70026 14.5998 5.47194 15.1154 6.32122 15.4672C7.1705 15.8189 8.08075 16 9 16C10.8565 16 12.637 15.2625 13.9497 13.9497C15.2625 12.637 16 10.8565 16 9C16 8.08075 15.8189 7.1705 15.4672 6.32122C15.1154 5.47194 14.5998 4.70026 13.9497 4.05025C13.2997 3.40024 12.5281 2.88463 11.6788 2.53284C10.8295 2.18106 9.91925 2 9 2ZM9 14.6C7.51479 14.6 6.09041 14.01 5.0402 12.9598C3.99 11.9096 3.4 10.4852 3.4 9C3.4 7.51479 3.99 6.09041 5.0402 5.0402C6.09041 3.99 7.51479 3.4 9 3.4C10.4852 3.4 11.9096 3.99 12.9598 5.0402C14.01 6.09041 14.6 7.51479 14.6 9C14.6 10.4852 14.01 11.9096 12.9598 12.9598C11.9096 14.01 10.4852 14.6 9 14.6Z" fill="#FD2D53"/>
</svg>
