<svg width="26" height="4" viewBox="0 0 26 4" fill="none" xmlns="http://www.w3.org/2000/svg">
<path fill-rule="evenodd" clip-rule="evenodd" d="M21.8243 2C21.8243 3.10457 22.7002 4 23.7808 4C24.8613 4 25.7373 3.10457 25.7373 2C25.7373 0.89543 24.8613 -3.82896e-08 23.7808 -8.55223e-08C22.7002 -1.32755e-07 21.8243 0.89543 21.8243 2Z" fill="#A4A4A4"/>
<path fill-rule="evenodd" clip-rule="evenodd" d="M10.9122 2C10.9122 3.10457 11.7881 4 12.8687 4C13.9492 4 14.8252 3.10457 14.8252 2C14.8252 0.89543 13.9492 -3.82896e-08 12.8687 -8.55223e-08C11.7881 -1.32755e-07 10.9122 0.89543 10.9122 2Z" fill="#A4A4A4"/>
<path fill-rule="evenodd" clip-rule="evenodd" d="M4.23511e-05 2C4.23028e-05 3.10457 0.876007 4 1.95656 4C3.03712 4 3.91309 3.10457 3.91309 2C3.91309 0.89543 3.03712 -3.82896e-08 1.95656 -8.55223e-08C0.876007 -1.32755e-07 4.23994e-05 0.89543 4.23511e-05 2Z" fill="#A4A4A4"/>
</svg>
