<svg width="26" height="26" viewBox="0 0 26 26" fill="none" xmlns="http://www.w3.org/2000/svg">
<path d="M17.3333 3.25C17.6207 3.25 17.8962 3.36414 18.0994 3.5673C18.3025 3.77047 18.4167 4.04602 18.4167 4.33333V5.41667H20.5833C21.13 5.41649 21.6564 5.62294 22.0573 5.99462C22.4581 6.3663 22.7036 6.87575 22.7446 7.42083L22.75 7.58333V20.5833C22.7502 21.13 22.5437 21.6564 22.172 22.0573C21.8004 22.4581 21.2909 22.7036 20.7458 22.7446L20.5833 22.75H5.41667C4.87004 22.7502 4.34355 22.5437 3.94274 22.172C3.54193 21.8004 3.29641 21.2909 3.25542 20.7458L3.25 20.5833V7.58333C3.24983 7.03671 3.45627 6.51022 3.82796 6.10941C4.19964 5.70859 4.70908 5.46308 5.25417 5.42208L5.41667 5.41667H7.58333V4.33333C7.58333 4.04602 7.69747 3.77047 7.90063 3.5673C8.1038 3.36414 8.37935 3.25 8.66667 3.25C8.95398 3.25 9.22953 3.36414 9.4327 3.5673C9.63586 3.77047 9.75 4.04602 9.75 4.33333V5.41667H16.25V4.33333C16.25 4.04602 16.3641 3.77047 16.5673 3.5673C16.7705 3.36414 17.046 3.25 17.3333 3.25ZM16.0593 10.1606L11.4638 14.7561L9.93092 13.2242C9.7266 13.0269 9.45295 12.9177 9.1689 12.9202C8.88485 12.9227 8.61314 13.0366 8.41228 13.2374C8.21142 13.4383 8.09749 13.71 8.09502 13.9941C8.09255 14.2781 8.20175 14.5518 8.39908 14.7561L10.6892 17.0473C10.7909 17.149 10.9115 17.2297 11.0443 17.2848C11.1772 17.3398 11.3195 17.3682 11.4633 17.3682C11.6071 17.3682 11.7494 17.3398 11.8822 17.2848C12.0151 17.2297 12.1357 17.149 12.2373 17.0473L17.5912 11.6924C17.6946 11.5925 17.7772 11.4729 17.8339 11.3408C17.8907 11.2086 17.9206 11.0664 17.9219 10.9226C17.9231 10.7788 17.8957 10.6361 17.8412 10.503C17.7868 10.3698 17.7063 10.2489 17.6046 10.1472C17.5029 10.0454 17.3819 9.965 17.2488 9.91053C17.1156 9.85606 16.973 9.82865 16.8291 9.8299C16.6853 9.83115 16.5431 9.86103 16.411 9.91781C16.2788 9.97458 16.1593 10.0571 16.0593 10.1606Z" fill="white"/>
</svg>
