<svg width="32" height="32" viewBox="0 0 32 32" fill="none" xmlns="http://www.w3.org/2000/svg">
<g clip-path="url(#clip0_0_447)">
<path d="M17.6 4.53333C17.1384 4.18714 16.577 4 16 4C15.423 4 14.8616 4.18714 14.4 4.53333L5.06667 11.5333C4.73548 11.7817 4.46667 12.1038 4.28153 12.4741C4.09639 12.8444 4 13.2527 4 13.6667V26.3333C4 27.0406 4.28095 27.7189 4.78105 28.219C5.28115 28.719 5.95942 29 6.66667 29H11.8667C12.2557 29 12.6287 28.8455 12.9038 28.5704C13.1788 28.2954 13.3333 27.9223 13.3333 27.5333V21C13.3333 20.2928 13.6143 19.6145 14.1144 19.1144C14.6145 18.6143 15.2928 18.3333 16 18.3333C16.7072 18.3333 17.3855 18.6143 17.8856 19.1144C18.3857 19.6145 18.6667 20.2928 18.6667 21V27.5333C18.6667 27.9223 18.8212 28.2954 19.0962 28.5704C19.3713 28.8455 19.7444 29 20.1333 29H25.3333C26.0406 29 26.7189 28.719 27.219 28.219C27.719 27.7189 28 27.0406 28 26.3333V13.6667C28 13.2527 27.9036 12.8444 27.7185 12.4741C27.5333 12.1038 27.2645 11.7817 26.9333 11.5333L17.6 4.53333Z" fill="#191919"/>
</g>
<defs>
<clipPath id="clip0_0_447">
<rect width="32" height="32" fill="white"/>
</clipPath>
</defs>
</svg>
