<svg width="214" height="46" viewBox="0 0 214 46" fill="none" xmlns="http://www.w3.org/2000/svg">
<path d="M14.0946 34.3455L3.02027 15.7205L2.89442 15.4688H0V44.7907H3.77535L3.6495 23.9004L12.962 39.1276H15.3531L24.5398 24.0262V44.7907H28.3151V15.4688H25.4207L14.0946 34.3455Z" fill="black"/>
<path d="M46.5626 30.5702L36.8725 15.4688H32.5938L44.675 34.3455V44.7907H48.5761V34.3455L60.6573 15.4688H56.3785L46.5626 30.5702Z" fill="black"/>
<path d="M100.047 15.4688L89.0985 39.5052L78.15 15.4688H73.8713L87.3367 44.7907L87.4625 45.0424H90.7345L104.326 15.4688H100.047Z" fill="black"/>
<path d="M140.947 15.4688H137.171V44.7907H156.803V41.267H140.947V15.4688Z" fill="black"/>
<path d="M181.846 32.2062C181.846 37.8692 178.196 41.7704 173.163 41.7704C168.003 41.7704 164.479 37.8692 164.479 32.2062V15.4688H160.704V32.2062C160.704 40.0086 165.864 45.4199 173.288 45.4199C180.713 45.4199 185.873 40.0086 185.873 32.2062V15.4688H182.098V32.2062H181.846Z" fill="black"/>
<path d="M192.165 18.9924V15.4688H212.804V44.7907H192.165V41.1412H208.903V31.9545H193.801V28.4308H208.903V18.9924H192.165Z" fill="black"/>
<path d="M119.301 15.4705L119.175 15.2188H115.777L102.564 44.7924H106.591L117.539 20.2526L123.076 32.9629L124.712 36.4866L128.362 44.7924H132.515L119.301 15.4705Z" fill="black"/>
<path d="M214 1.95768L212.042 0L204.657 7.38576L206.614 9.34344L214 1.95768Z" fill="black"/>
</svg>
