<svg width="262" height="56" viewBox="0 0 262 56" fill="none" xmlns="http://www.w3.org/2000/svg">
<path d="M17.256 42.0489L3.69771 19.2462L3.54363 18.9381H0V54.8368H4.62215L4.46807 29.2609L15.8694 47.9036H18.7968L30.044 29.415V54.8368H34.6661V18.9381H31.1225L17.256 42.0489Z" fill="white"/>
<path d="M57.0063 37.4267L45.1427 18.9381H39.9043L54.6952 42.0489V54.8368H59.4714V42.0489L74.2623 18.9381H69.0238L57.0063 37.4267Z" fill="white"/>
<path d="M122.487 18.9381L109.083 48.3658L95.6786 18.9381H90.4402L106.926 54.8368L107.08 55.145H111.086L127.726 18.9381H122.487Z" fill="white"/>
<path d="M172.561 18.9381H167.938V54.8368H191.974V50.5228H172.561V18.9381Z" fill="white"/>
<path d="M222.633 39.4296C222.633 46.3629 218.165 51.1391 212.002 51.1391C205.686 51.1391 201.371 46.3629 201.371 39.4296V18.9381H196.749V39.4296C196.749 48.9821 203.066 55.6072 212.157 55.6072C221.247 55.6072 227.564 48.9821 227.564 39.4296V18.9381H222.942V39.4296H222.633Z" fill="white"/>
<path d="M235.268 23.2521V18.9381H260.535V54.8368H235.268V50.3687H255.759V39.1215H237.271V34.8075H255.759V23.2521H235.268Z" fill="white"/>
<path d="M146.06 18.9404L145.906 18.6323H141.746L125.568 54.8391H130.499L143.903 24.7951L150.682 40.3564L152.685 44.6704L157.153 54.8391H162.237L146.06 18.9404Z" fill="white"/>
<path d="M262 2.39678L259.603 0L250.561 9.04237L252.958 11.4392L262 2.39678Z" fill="white"/>
</svg>
