<svg width="34" height="34" viewBox="0 0 34 34" fill="none" xmlns="http://www.w3.org/2000/svg">
<path fill-rule="evenodd" clip-rule="evenodd" d="M26.9501 7.04656C27.0293 7.12551 27.0921 7.2193 27.1349 7.32255C27.1777 7.4258 27.1998 7.5365 27.1998 7.64829C27.1998 7.76008 27.1777 7.87077 27.1349 7.97402C27.0921 8.07728 27.0293 8.17106 26.9501 8.25001L8.25249 26.9476C8.09291 27.1072 7.87646 27.1969 7.65077 27.1969C7.42508 27.1969 7.20863 27.1072 7.04905 26.9476C6.88946 26.788 6.7998 26.5716 6.7998 26.3459C6.7998 26.1202 6.88946 25.9038 7.04905 25.7442L25.7467 7.04656C25.8256 6.96742 25.9194 6.90462 26.0227 6.86177C26.1259 6.81893 26.2366 6.79688 26.3484 6.79688C26.4602 6.79688 26.5709 6.81893 26.6741 6.86177C26.7774 6.90462 26.8712 6.96742 26.9501 7.04656Z" fill="#A4A4A4"/>
<path fill-rule="evenodd" clip-rule="evenodd" d="M7.04949 7.04656C6.97034 7.12551 6.90755 7.2193 6.8647 7.32255C6.82186 7.4258 6.7998 7.5365 6.7998 7.64829C6.7998 7.76008 6.82186 7.87077 6.8647 7.97402C6.90755 8.07728 6.97034 8.17106 7.04949 8.25001L25.7471 26.9476C25.9067 27.1072 26.1231 27.1969 26.3488 27.1969C26.5745 27.1969 26.791 27.1072 26.9506 26.9476C27.1101 26.788 27.1998 26.5716 27.1998 26.3459C27.1998 26.1202 27.1101 25.9038 26.9506 25.7442L8.25294 7.04656C8.17399 6.96742 8.08021 6.90462 7.97695 6.86177C7.8737 6.81893 7.76301 6.79688 7.65122 6.79688C7.53943 6.79688 7.42873 6.81893 7.32548 6.86177C7.22223 6.90462 7.12844 6.96742 7.04949 7.04656Z" fill="#A4A4A4"/>
</svg>
