<svg width="38" height="38" viewBox="0 0 38 38" fill="none" xmlns="http://www.w3.org/2000/svg">
<g clip-path="url(#clip0_316_195387)">
<path d="M27.859 25.6321C28.5151 25.304 29.3026 25.5264 29.6962 26.1242L29.7839 26.2769L32.9486 32.6064C33.1708 33.0508 33.1472 33.5784 32.886 34.0009C32.6582 34.3693 32.2784 34.6121 31.8557 34.6682L31.6618 34.6807H6.33333C5.83659 34.6807 5.37525 34.4235 5.11407 34.0009C4.8864 33.6326 4.83915 33.1843 4.97797 32.7811L5.05348 32.6021L8.21799 26.2731C8.57201 25.565 9.43298 25.2781 10.141 25.6321C10.7971 25.9602 11.0918 26.7236 10.8497 27.3971L10.7801 27.5589L8.76107 31.597L8.65253 31.8141H8.89523H29.1048H29.3475L29.239 31.597L27.218 27.5551C26.864 26.847 27.151 25.9861 27.859 25.6321ZM17.9223 24.1602L17.924 24.1613L18.4613 24.5036L18.4631 24.5047C18.6309 24.6085 18.7855 24.7012 18.9242 24.7824L19.0011 24.8274L19.0774 24.7814L19.5354 24.5056L19.5355 24.5057L19.5387 24.5036L20.076 24.1613L20.0777 24.1602C21.1316 23.4689 22.5092 22.449 23.7673 21.1543C25.6275 19.24 27.0667 16.8932 27.0667 14.2474C27.0667 9.79231 23.4551 6.18073 19 6.18073C14.5449 6.18073 10.9333 9.79231 10.9333 14.2474C10.9333 16.8932 12.3725 19.24 14.2327 21.1543C15.4908 22.449 16.8684 23.4689 17.9223 24.1602ZM19 3.31406C25.0383 3.31406 29.9333 8.20909 29.9333 14.2474C29.9333 17.9627 27.9228 20.9913 25.8233 23.152C24.5325 24.4804 23.1474 25.5444 22.0189 26.311C22.0187 26.3112 22.0184 26.3114 22.0182 26.3115L21.4305 26.6998L20.9069 27.0276C20.9066 27.0277 20.9063 27.0279 20.906 27.0281C20.8253 27.0773 20.7478 27.1239 20.6737 27.168C20.6735 27.1682 20.6732 27.1683 20.673 27.1684L20.2692 27.4034C20.269 27.4035 20.2687 27.4036 20.2685 27.4038C19.4777 27.8526 18.5222 27.8526 17.7314 27.4037C17.7312 27.4036 17.731 27.4035 17.7308 27.4034L17.3271 27.1685L16.8401 26.8713C16.8399 26.8712 16.8397 26.871 16.8395 26.8709C16.7525 26.8165 16.6627 26.7596 16.5703 26.7003C16.57 26.7001 16.5697 26.6999 16.5695 26.6998L15.9818 26.3115C15.9816 26.3114 15.9813 26.3112 15.9811 26.311C14.8526 25.5444 13.4675 24.4804 12.1767 23.152C10.0771 20.9913 8.06667 17.9627 8.06667 14.2474C8.06667 8.20909 12.9617 3.31406 19 3.31406ZM19 9.6474C21.5406 9.6474 23.6 11.7069 23.6 14.2474C23.6 16.788 21.5406 18.8474 19 18.8474C16.4594 18.8474 14.4 16.788 14.4 14.2474C14.4 11.7069 16.4594 9.6474 19 9.6474ZM19 12.5141C18.0427 12.5141 17.2667 13.2901 17.2667 14.2474C17.2667 15.2047 18.0427 15.9807 19 15.9807C19.9573 15.9807 20.7333 15.2047 20.7333 14.2474C20.7333 13.2901 19.9573 12.5141 19 12.5141Z" fill="#A4A4A4" stroke="white" stroke-width="0.3"/>
</g>
<defs>
<clipPath id="clip0_316_195387">
<rect width="38" height="38" fill="white"/>
</clipPath>
</defs>
</svg>
