<svg width="34" height="34" viewBox="0 0 34 34" fill="none" xmlns="http://www.w3.org/2000/svg">
<g clip-path="url(#clip0_316_200468)">
<path fill-rule="evenodd" clip-rule="evenodd" d="M14.8757 2.82812C8.22522 2.82812 2.83398 8.21936 2.83398 14.8698C2.83398 21.5202 8.22522 26.9115 14.8757 26.9115C17.6904 26.9115 20.2797 25.9457 22.33 24.3275L27.5041 29.5015C28.0573 30.0548 28.9543 30.0548 29.5076 29.5015C30.0608 28.9483 30.0608 28.0513 29.5076 27.4981L24.3335 22.324C25.9516 20.2737 26.9173 17.6844 26.9173 14.8698C26.9173 8.21936 21.5261 2.82812 14.8757 2.82812ZM5.66732 14.8698C5.66732 9.78417 9.79003 5.66146 14.8757 5.66146C19.9613 5.66146 24.084 9.78417 24.084 14.8698C24.084 19.9555 19.9613 24.0781 14.8757 24.0781C9.79003 24.0781 5.66732 19.9555 5.66732 14.8698Z" fill="#E0E0E0"/>
</g>
<defs>
<clipPath id="clip0_316_200468">
<rect width="34" height="34" fill="white"/>
</clipPath>
</defs>
</svg>
