<svg width="38" height="38" viewBox="0 0 38 38" fill="none" xmlns="http://www.w3.org/2000/svg">
<rect width="38" height="38" fill="#F5F5F5"/>
<g clip-path="url(#clip0_215_8880)">
<rect width="420" height="1112" transform="translate(-70 -233)" fill="white"/>
<rect width="420" height="338" transform="translate(-70 -233)" fill="#1F1F1F"/>
<rect x="-41" y="-17" width="372" height="100" rx="20" fill="white"/>
<g clip-path="url(#clip1_215_8880)">
<mask id="path-2-inside-1_215_8880" fill="white">
<path d="M25.3333 4.75C26.2078 4.75 26.9167 5.45889 26.9167 6.33333V7.91667H30.0833C31.8323 7.91667 33.25 9.33443 33.25 11.0833V30.0833C33.25 31.8323 31.8323 33.25 30.0833 33.25H7.91667C6.16776 33.25 4.75 31.8323 4.75 30.0833V11.0833C4.75 9.33443 6.16776 7.91667 7.91667 7.91667H11.0833V6.33333C11.0833 5.45889 11.7922 4.75 12.6667 4.75C13.5411 4.75 14.25 5.45889 14.25 6.33333V7.91667H23.75V6.33333C23.75 5.45889 24.4589 4.75 25.3333 4.75ZM30.0833 11.0833H7.91667V30.0833H30.0833V11.0833ZM23.4715 14.8496C24.0898 14.2313 25.0924 14.2313 25.7106 14.8496C26.3291 15.468 26.3291 16.4705 25.7106 17.0888L17.8849 24.9147C17.2602 25.5392 16.2477 25.5392 15.6232 24.9147L12.2757 21.5672C11.6573 20.9488 11.6573 19.9464 12.2757 19.3279C12.894 18.7096 13.8965 18.7096 14.5148 19.3279L16.754 21.5672L23.4715 14.8496Z"/>
</mask>
<path d="M25.3333 4.75C26.2078 4.75 26.9167 5.45889 26.9167 6.33333V7.91667H30.0833C31.8323 7.91667 33.25 9.33443 33.25 11.0833V30.0833C33.25 31.8323 31.8323 33.25 30.0833 33.25H7.91667C6.16776 33.25 4.75 31.8323 4.75 30.0833V11.0833C4.75 9.33443 6.16776 7.91667 7.91667 7.91667H11.0833V6.33333C11.0833 5.45889 11.7922 4.75 12.6667 4.75C13.5411 4.75 14.25 5.45889 14.25 6.33333V7.91667H23.75V6.33333C23.75 5.45889 24.4589 4.75 25.3333 4.75ZM30.0833 11.0833H7.91667V30.0833H30.0833V11.0833ZM23.4715 14.8496C24.0898 14.2313 25.0924 14.2313 25.7106 14.8496C26.3291 15.468 26.3291 16.4705 25.7106 17.0888L17.8849 24.9147C17.2602 25.5392 16.2477 25.5392 15.6232 24.9147L12.2757 21.5672C11.6573 20.9488 11.6573 19.9464 12.2757 19.3279C12.894 18.7096 13.8965 18.7096 14.5148 19.3279L16.754 21.5672L23.4715 14.8496Z" fill="#A4A4A4" stroke="white" stroke-width="0.6" mask="url(#path-2-inside-1_215_8880)"/>
</g>
</g>
<defs>
<clipPath id="clip0_215_8880">
<rect width="420" height="1112" fill="white" transform="translate(-70 -233)"/>
</clipPath>
<clipPath id="clip1_215_8880">
<rect width="38" height="38" fill="white"/>
</clipPath>
</defs>
</svg>
