<svg width="26" height="26" viewBox="0 0 26 26" fill="none" xmlns="http://www.w3.org/2000/svg">
<g clip-path="url(#clip0_316_199486)">
<path fill-rule="evenodd" clip-rule="evenodd" d="M15.0538 3.28304C15.8555 2.48144 17.1289 2.43925 17.9802 3.15647L18.1181 3.28304L22.7142 7.87923C23.5158 8.68084 23.5579 9.95428 22.8408 10.8056L22.7142 10.9434L11.541 22.1166C11.1798 22.4778 10.7043 22.6983 10.1995 22.7428L10.009 22.7512H4.34026C3.77629 22.7512 3.31192 22.3244 3.25251 21.7762L3.24609 21.657V15.9883C3.24609 15.4775 3.42645 14.9853 3.75191 14.5969L3.88069 14.4562L15.0538 3.28304ZM13.1842 8.21679L5.41276 15.9883V20.5845H10.009L17.7805 12.813L13.1842 8.21679ZM16.5859 4.8151L14.7163 6.68472L19.3125 11.281L21.1822 9.41129L16.5859 4.8151Z" fill="#A4A4A4"/>
</g>
<defs>
<clipPath id="clip0_316_199486">
<rect width="26" height="26" fill="white"/>
</clipPath>
</defs>
</svg>
