<svg width="32" height="32" viewBox="0 0 32 32" fill="none" xmlns="http://www.w3.org/2000/svg">
<path d="M14.3412 8.22549L23.7692 17.6535L14.2043 27.2186C13.7597 27.6632 13.1744 27.9345 12.5531 27.9893L12.3186 27.9997H5.34178C4.64767 27.9997 4.07614 27.4744 4.00302 26.7997L3.99512 26.653V19.6761C3.99512 19.0474 4.2171 18.4417 4.61766 17.9636L4.77616 17.7905L14.3412 8.22549ZM18.5277 4.03886C19.5144 3.05227 21.0817 3.00035 22.1294 3.88309L22.2991 4.03886L27.9559 9.69572C28.9424 10.6823 28.9943 12.2496 28.1116 13.2974L27.9559 13.467L25.6548 15.7679L16.2268 6.33988L18.5277 4.03886Z" fill="#191919"/>
</svg>
