<svg width="32" height="32" viewBox="0 0 32 32" fill="none" xmlns="http://www.w3.org/2000/svg">
<path d="M21.3333 4C21.687 4 22.0261 4.14048 22.2761 4.39052C22.5262 4.64057 22.6667 4.97971 22.6667 5.33333V6.66667H25.3333C26.0061 6.66645 26.6541 6.92054 27.1474 7.378C27.6407 7.83545 27.9429 8.46246 27.9933 9.13333L28 9.33333V25.3333C28.0002 26.0061 27.7461 26.6541 27.2887 27.1474C26.8312 27.6407 26.2042 27.9429 25.5333 27.9933L25.3333 28H6.66667C5.9939 28.0002 5.34591 27.7461 4.8526 27.2887C4.35929 26.8312 4.05712 26.2042 4.00667 25.5333L4 25.3333V9.33333C3.99979 8.66056 4.25388 8.01258 4.71133 7.51927C5.16878 7.02596 5.79579 6.72379 6.46667 6.67333L6.66667 6.66667H9.33333V5.33333C9.33333 4.97971 9.47381 4.64057 9.72386 4.39052C9.97391 4.14048 10.313 4 10.6667 4C11.0203 4 11.3594 4.14048 11.6095 4.39052C11.8595 4.64057 12 4.97971 12 5.33333V6.66667H20V5.33333C20 4.97971 20.1405 4.64057 20.3905 4.39052C20.6406 4.14048 20.9797 4 21.3333 4ZM19.7653 12.5053L14.1093 18.1613L12.2227 16.276C11.9712 16.0331 11.6344 15.8987 11.2848 15.9018C10.9352 15.9048 10.6008 16.045 10.3536 16.2922C10.1064 16.5395 9.96614 16.8739 9.9631 17.2235C9.96006 17.5731 10.0945 17.9099 10.3373 18.1613L13.156 20.9813C13.2811 21.1065 13.4296 21.2058 13.593 21.2736C13.7565 21.3413 13.9317 21.3762 14.1087 21.3762C14.2856 21.3762 14.4608 21.3413 14.6243 21.2736C14.7878 21.2058 14.9363 21.1065 15.0613 20.9813L21.6507 14.3907C21.778 14.2677 21.8796 14.1205 21.9495 13.9579C22.0193 13.7952 22.0561 13.6202 22.0577 13.4432C22.0592 13.2662 22.0255 13.0906 21.9584 12.9267C21.8914 12.7629 21.7924 12.614 21.6672 12.4888C21.542 12.3636 21.3931 12.2646 21.2293 12.1976C21.0654 12.1305 20.8898 12.0968 20.7128 12.0983C20.5358 12.0999 20.3608 12.1367 20.1981 12.2065C20.0355 12.2764 19.8883 12.378 19.7653 12.5053Z" fill="#191919"/>
</svg>
