<svg width="16" height="16" viewBox="0 0 16 16" fill="none" xmlns="http://www.w3.org/2000/svg">
<g clip-path="url(#clip0_1280_8889)">
<path d="M7.33278 11.172C6.07674 10.9911 4.93222 10.3101 4.13068 9.26681C3.32914 8.2235 2.9304 6.89572 3.01509 5.55197C3.09977 4.20822 3.66157 2.94878 4.58687 2.02834C5.51216 1.10789 6.73191 0.595134 7.99945 0.593752C9.26854 0.592453 10.4906 1.10395 11.4179 2.02454C12.3452 2.94513 12.9083 4.20592 12.9931 5.55131C13.0779 6.89671 12.678 8.22602 11.8745 9.26974C11.071 10.3135 9.92404 10.9935 8.66612 11.172V12.6354H11.9994V14.0521H8.66612V16.8854H7.33278V14.0521H3.99945V12.6354H7.33278V11.172ZM7.99945 9.80209C8.97191 9.80209 9.90454 9.39163 10.5922 8.66102C11.2798 7.93041 11.6661 6.93949 11.6661 5.90625C11.6661 4.87301 11.2798 3.88209 10.5922 3.15148C9.90454 2.42087 8.97191 2.01042 7.99945 2.01042C7.02699 2.01042 6.09436 2.42087 5.40672 3.15148C4.71909 3.88209 4.33278 4.87301 4.33278 5.90625C4.33278 6.93949 4.71909 7.93041 5.40672 8.66102C6.09436 9.39163 7.02699 9.80209 7.99945 9.80209Z" fill="#FF8179"/>
</g>
<defs>
<clipPath id="clip0_1280_8889">
<rect width="16" height="16" fill="white"/>
</clipPath>
</defs>
</svg>
