<svg width="12" height="12" viewBox="0 0 12 12" fill="none" xmlns="http://www.w3.org/2000/svg">
<path d="M11.3333 5.33333L8.66659 8L7.33325 7.66667L3.99992 4L6.33325 1.66667L9.33325 1L11.3333 3.33333L11.3333 5.33333Z" fill="white"/>
<path d="M0.666504 6.66667L3.33317 4L4.6665 4.33333L7.99984 8L5.6665 10.3333L2.6665 11L0.666504 8.66667V6.66667Z" fill="#7FDBE8"/>
<path d="M3.75 12C2.70556 12 1.81956 11.6362 1.092 10.9087C0.364 10.1807 0 9.29445 0 8.25C0 7.75 0.0944444 7.27222 0.283333 6.81667C0.472222 6.36111 0.744445 5.95556 1.1 5.6L5.6 1.1C5.95556 0.744445 6.36111 0.472222 6.81667 0.283333C7.27222 0.0944444 7.75 0 8.25 0C9.29445 0 10.1807 0.363778 10.9087 1.09133C11.6362 1.81933 12 2.70556 12 3.75C12 4.25 11.9056 4.72778 11.7167 5.18333C11.5278 5.63889 11.2556 6.04445 10.9 6.4L6.4 10.9C6.04445 11.2556 5.63889 11.5278 5.18333 11.7167C4.72778 11.9056 4.25 12 3.75 12ZM8.18333 7.23333L9.96667 5.46667C10.1889 5.24444 10.3611 4.98333 10.4833 4.68333C10.6056 4.38333 10.6667 4.07222 10.6667 3.75C10.6667 3.08333 10.4307 2.51378 9.95867 2.04133C9.48622 1.56933 8.91667 1.33333 8.25 1.33333C7.92778 1.33333 7.61667 1.39444 7.31667 1.51667C7.01667 1.63889 6.75556 1.81111 6.53333 2.03333L4.76667 3.81667L8.18333 7.23333ZM3.75 10.6667C4.07222 10.6667 4.38333 10.6056 4.68333 10.4833C4.98333 10.3611 5.24444 10.1889 5.46667 9.96667L7.23333 8.18333L3.81667 4.76667L2.03333 6.53333C1.81111 6.75556 1.63889 7.01667 1.51667 7.31667C1.39444 7.61667 1.33333 7.92778 1.33333 8.25C1.33333 8.91667 1.56933 9.48622 2.04133 9.95867C2.51378 10.4307 3.08333 10.6667 3.75 10.6667Z" fill="#26C1D6"/>
</svg>
